<svg xmlns="http://www.w3.org/2000/svg" xmlns:xlink="http://www.w3.org/1999/xlink" xmlns:inkscape="http://www.inkscape.org/namespaces/inkscape" version="1.1" width="2772.6925" height="745.2795" viewBox="0 0 2772.6925 745.2795">
<defs>
<clipPath id="clip_0">
<path transform="matrix(1,0,0,-1,-31.57964,1323.1514)" d="M31.57964 577.8719H2804.272V1323.1514H31.57964Z" clip-rule="evenodd"/>
</clipPath>
<clipPath id="clip_1">
<path transform="matrix(1,0,0,-1,-31.57964,1323.1514)" d="M88.612 643.943H1878.9719V1331.911H88.612Z"/>
</clipPath>
<clipPath id="clip_2">
<path transform="matrix(1,0,0,-1,-31.57964,1323.1514)" d="M88.612 643.943H1878.9719V1331.911H88.612Z"/>
</clipPath>
<clipPath id="clip_3">
<path transform="matrix(1,0,0,-1,-31.57964,1323.1514)" d="M88.612 643.943H1878.9719V1331.911H88.612Z"/>
</clipPath>
<clipPath id="clip_4">
<path transform="matrix(1,0,0,-1,-31.57964,1323.1514)" d="M88.612 643.943H1878.9719V1331.911H88.612Z"/>
</clipPath>
<clipPath id="clip_5">
<path transform="matrix(1,0,0,-1,-31.57964,1323.1514)" d="M88.612 643.943H1878.9719V1331.911H88.612Z"/>
</clipPath>
<clipPath id="clip_6">
<path transform="matrix(1,0,0,-1,-31.57964,1323.1514)" d="M88.612 643.943H1878.9719V1331.911H88.612Z"/>
</clipPath>
<clipPath id="clip_7">
<path transform="matrix(1,0,0,-1,-31.57964,1323.1514)" d="M88.612 643.943H1878.9719V1331.911H88.612Z"/>
</clipPath>
<clipPath id="clip_8">
<path transform="matrix(1,0,0,-1,-31.57964,1323.1514)" d="M88.612 643.943H1878.9719V1331.911H88.612Z"/>
</clipPath>
<clipPath id="clip_9">
<path transform="matrix(1,0,0,-1,-31.57964,1323.1514)" d="M88.612 643.943H1878.9719V1331.911H88.612Z"/>
</clipPath>
<clipPath id="clip_10">
<path transform="matrix(1,0,0,-1,-31.57964,1323.1514)" d="M88.612 643.943H1878.9719V1331.911H88.612Z"/>
</clipPath>
<clipPath id="clip_11">
<path transform="matrix(1,0,0,-1,-31.57964,1323.1514)" d="M88.612 643.943H1878.9719V1331.911H88.612Z"/>
</clipPath>
<clipPath id="clip_12">
<path transform="matrix(1,0,0,-1,-31.57964,1323.1514)" d="M88.612 643.943H1878.9719V1331.911H88.612Z"/>
</clipPath>
<clipPath id="clip_13">
<path transform="matrix(1,0,0,-1,-31.57964,1323.1514)" d="M88.612 643.943H1878.9719V1331.911H88.612Z"/>
</clipPath>
<clipPath id="clip_14">
<path transform="matrix(1,0,0,-1,-31.57964,1323.1514)" d="M88.612 643.943H1878.9719V1331.911H88.612Z"/>
</clipPath>
<clipPath id="clip_15">
<path transform="matrix(1,0,0,-1,-31.57964,1323.1514)" d="M88.612 643.943H1878.9719V1331.911H88.612Z"/>
</clipPath>
<clipPath id="clip_16">
<path transform="matrix(1,0,0,-1,-31.57964,1323.1514)" d="M88.612 643.943H1878.9719V1331.911H88.612Z"/>
</clipPath>
<clipPath id="clip_17">
<path transform="matrix(1,0,0,-1,-31.57964,1323.1514)" d="M88.612 643.943H1878.9719V1331.911H88.612Z"/>
</clipPath>
<clipPath id="clip_18">
<path transform="matrix(1,0,0,-1,-31.57964,1323.1514)" d="M88.612 643.943H1878.9719V1331.911H88.612Z"/>
</clipPath>
<clipPath id="clip_19">
<path transform="matrix(1,0,0,-1,-31.57964,1323.1514)" d="M88.612 643.943H1878.9719V1331.911H88.612Z"/>
</clipPath>
<clipPath id="clip_20">
<path transform="matrix(1,0,0,-1,-31.57964,1323.1514)" d="M88.612 643.943H1878.9719V1331.911H88.612Z"/>
</clipPath>
<clipPath id="clip_21">
<path transform="matrix(1,0,0,-1,-31.57964,1323.1514)" d="M88.612 643.943H1878.9719V1331.911H88.612Z"/>
</clipPath>
<clipPath id="clip_22">
<path transform="matrix(1,0,0,-1,-31.57964,1323.1514)" d="M88.612 643.943H1878.9719V1331.911H88.612Z"/>
</clipPath>
<clipPath id="clip_23">
<path transform="matrix(1,0,0,-1,-31.57964,1323.1514)" d="M88.612 643.943H1878.9719V1331.911H88.612Z"/>
</clipPath>
<clipPath id="clip_24">
<path transform="matrix(1,0,0,-1,-31.57964,1323.1514)" d="M88.612 643.943H1878.9719V1331.911H88.612Z"/>
</clipPath>
<clipPath id="clip_25">
<path transform="matrix(1,0,0,-1,-31.57964,1323.1514)" d="M88.612 643.943H1878.9719V1331.911H88.612Z"/>
</clipPath>
<clipPath id="clip_26">
<path transform="matrix(1,0,0,-1,-31.57964,1323.1514)" d="M88.612 643.943H1878.9719V1331.911H88.612Z"/>
</clipPath>
<clipPath id="clip_27">
<path transform="matrix(1,0,0,-1,-31.57964,1323.1514)" d="M88.612 643.943H1878.9719V1331.911H88.612Z"/>
</clipPath>
<clipPath id="clip_28">
<path transform="matrix(1,0,0,-1,-31.57964,1323.1514)" d="M88.612 643.943H1878.9719V1331.911H88.612Z"/>
</clipPath>
<clipPath id="clip_29">
<path transform="matrix(1,0,0,-1,-31.57964,1323.1514)" d="M88.612 643.943H1878.9719V1331.911H88.612Z"/>
</clipPath>
<clipPath id="clip_30">
<path transform="matrix(1,0,0,-1,-31.57964,1323.1514)" d="M88.612 643.943H1878.9719V1331.911H88.612Z"/>
</clipPath>
<clipPath id="clip_31">
<path transform="matrix(1,0,0,-1,-31.57964,1323.1514)" d="M88.612 643.943H1878.9719V1331.911H88.612Z"/>
</clipPath>
<clipPath id="clip_32">
<path transform="matrix(1,0,0,-1,-31.57964,1323.1514)" d="M88.612 643.943H1878.9719V1331.911H88.612Z"/>
</clipPath>
<clipPath id="clip_33">
<path transform="matrix(1,0,0,-1,-31.57964,1323.1514)" d="M1902.173 697.704H2791.477V1304.995H1902.173Z"/>
</clipPath>
<clipPath id="clip_34">
<path transform="matrix(1,0,0,-1,-31.57964,1323.1514)" d="M1851.224 642.496H2854.779V1313.947H1851.224Z"/>
</clipPath>
<clipPath id="clip_35">
<path transform="matrix(1,0,0,-1,-31.57964,1323.1514)" d="M1851.224 642.496H2854.779V1313.947H1851.224Z"/>
</clipPath>
<clipPath id="clip_36">
<path transform="matrix(1,0,0,-1,-31.57964,1323.1514)" d="M1851.224 642.496H2854.779V1313.947H1851.224Z"/>
</clipPath>
<clipPath id="clip_37">
<path transform="matrix(1,0,0,-1,-31.57964,1323.1514)" d="M1851.224 642.496H2854.779V1313.947H1851.224Z"/>
</clipPath>
<clipPath id="clip_38">
<path transform="matrix(1,0,0,-1,-31.57964,1323.1514)" d="M1851.224 642.496H2854.779V1313.947H1851.224Z"/>
</clipPath>
<clipPath id="clip_39">
<path transform="matrix(1,0,0,-1,-31.57964,1323.1514)" d="M1851.224 642.496H2854.779V1313.947H1851.224Z"/>
</clipPath>
<clipPath id="clip_40">
<path transform="matrix(1,0,0,-1,-31.57964,1323.1514)" d="M1851.224 642.496H2854.779V1313.947H1851.224Z"/>
</clipPath>
<clipPath id="clip_41">
<path transform="matrix(1,0,0,-1,-31.57964,1323.1514)" d="M1851.224 642.496H2854.779V1313.947H1851.224Z"/>
</clipPath>
<clipPath id="clip_42">
<path transform="matrix(1,0,0,-1,-31.57964,1323.1514)" d="M1851.224 642.496H2854.779V1313.947H1851.224Z"/>
</clipPath>
<clipPath id="clip_43">
<path transform="matrix(1,0,0,-1,-31.57964,1323.1514)" d="M1851.224 642.496H2854.779V1313.947H1851.224Z"/>
</clipPath>
<clipPath id="clip_44">
<path transform="matrix(1,0,0,-1,-31.57964,1323.1514)" d="M1851.224 642.496H2854.779V1313.947H1851.224Z"/>
</clipPath>
<clipPath id="clip_45">
<path transform="matrix(1,0,0,-1,-31.57964,1323.1514)" d="M1851.224 642.496H2854.779V1313.947H1851.224Z"/>
</clipPath>
<clipPath id="clip_46">
<path transform="matrix(1,0,0,-1,-31.57964,1323.1514)" d="M1851.224 642.496H2854.779V1313.947H1851.224Z"/>
</clipPath>
<clipPath id="clip_47">
<path transform="matrix(1,0,0,-1,-31.57964,1323.1514)" d="M1851.224 642.496H2854.779V1313.947H1851.224Z"/>
</clipPath>
<clipPath id="clip_48">
<path transform="matrix(1,0,0,-1,-31.57964,1323.1514)" d="M1851.224 642.496H2854.779V1313.947H1851.224Z"/>
</clipPath>
<clipPath id="clip_49">
<path transform="matrix(1,0,0,-1,-31.57964,1323.1514)" d="M1851.224 642.496H2854.779V1313.947H1851.224Z"/>
</clipPath>
<clipPath id="clip_50">
<path transform="matrix(1,0,0,-1,-31.57964,1323.1514)" d="M1851.224 642.496H2854.779V1313.947H1851.224Z"/>
</clipPath>
<clipPath id="clip_51">
<path transform="matrix(1,0,0,-1,-31.57964,1323.1514)" d="M1851.224 642.496H2854.779V1313.947H1851.224Z"/>
</clipPath>
<clipPath id="clip_52">
<path transform="matrix(1,0,0,-1,-31.57964,1323.1514)" d="M1851.224 642.496H2854.779V1313.947H1851.224Z"/>
</clipPath>
<clipPath id="clip_53">
<path transform="matrix(1,0,0,-1,-31.57964,1323.1514)" d="M1851.224 642.496H2854.779V1313.947H1851.224Z"/>
</clipPath>
<clipPath id="clip_54">
<path transform="matrix(1,0,0,-1,-31.57964,1323.1514)" d="M1851.224 642.496H2854.779V1313.947H1851.224Z"/>
</clipPath>
<clipPath id="clip_55">
<path transform="matrix(1,0,0,-1,-31.57964,1323.1514)" d="M1851.224 642.496H2854.779V1313.947H1851.224Z"/>
</clipPath>
<clipPath id="clip_56">
<path transform="matrix(1,0,0,-1,-31.57964,1323.1514)" d="M0 0H2880V1620H0Z"/>
</clipPath>
<clipPath id="clip_57">
<path transform="matrix(1,0,0,-1,-31.57964,1323.1514)" d="M0 0H2880V1620H0Z"/>
</clipPath>
<clipPath id="clip_58">
<path transform="matrix(1,0,0,-1,-31.57964,1323.1514)" d="M0 0H2880V1620H0Z"/>
</clipPath>
</defs>
<g>
<g clip-path="url(#clip_0)">
<g inkscape:groupmode="layer" inkscape:label="Background">
<path transform="matrix(1,0,0,-1,-31.57964,1323.1514)" d="M0 0H2880V1620H0Z" fill="#ffffff"/>
</g>
<path transform="matrix(1.4919666,0,0,1.5288184,-31.57964,1323.1515)" d="M59.393-871.203H1259.393V-421.203H59.393Z" fill="#ffffff"/>
<path transform="matrix(1.4919666,0,0,1.5288184,163.97644,20.28833)" stroke-width="1.5" stroke-linecap="butt" stroke-dasharray="9,9" stroke-miterlimit="4" stroke-linejoin="miter" fill="none" stroke="#ffffff" d="M0 0V394"/>
<path transform="matrix(1.4919666,0,0,1.5288184,441.66127,20.288575)" stroke-width="1.5" stroke-linecap="butt" stroke-dasharray="9,9" stroke-miterlimit="4" stroke-linejoin="miter" fill="none" stroke="#ffffff" d="M0 0V394"/>
<path transform="matrix(1.4919666,0,0,1.5288184,787.23049,20.288819)" stroke-width="1.5" stroke-linecap="butt" stroke-dasharray="9,9" stroke-miterlimit="4" stroke-linejoin="miter" fill="none" stroke="#ffffff" d="M0 0V394"/>
<path transform="matrix(1.4919666,0,0,1.5288184,1132.7848,20.289063)" stroke-width="1.5" stroke-linecap="butt" stroke-dasharray="9,9" stroke-miterlimit="4" stroke-linejoin="miter" fill="none" stroke="#ffffff" d="M0 0V394"/>
<path transform="matrix(1.4919666,0,0,1.5288184,1478.354,20.289307)" stroke-width="1.5" stroke-linecap="butt" stroke-dasharray="9,9" stroke-miterlimit="4" stroke-linejoin="miter" fill="none" stroke="#ffffff" d="M0 0V394"/>
<path transform="matrix(1.4919666,0,0,1.5288184,1706.6696,20.28955)" stroke-width="1.5" stroke-linecap="butt" stroke-dasharray="9,9" stroke-miterlimit="4" stroke-linejoin="miter" fill="none" stroke="#ffffff" d="M0 0V394"/>
<path transform="matrix(1.4919666,0,0,1.5288184,133.1221,502.17329)" stroke-width="1.5" stroke-linecap="butt" stroke-dasharray="3,3" stroke-miterlimit="4" stroke-linejoin="miter" fill="none" stroke="#cfcfcf" d="M0 0H1075.36"/>
<path transform="matrix(1.4919666,0,0,1.5288184,133.1221,381.7025)" stroke-width="1.5" stroke-linecap="butt" stroke-dasharray="3,3" stroke-miterlimit="4" stroke-linejoin="miter" fill="none" stroke="#cfcfcf" d="M0 0H1075.36"/>
<path transform="matrix(1.4919666,0,0,1.5288184,133.1221,261.23158)" stroke-width="1.5" stroke-linecap="butt" stroke-dasharray="3,3" stroke-miterlimit="4" stroke-linejoin="miter" fill="none" stroke="#cfcfcf" d="M0 0H1075.36"/>
<path transform="matrix(1.4919666,0,0,1.5288184,133.1221,140.76099)" stroke-width="1.5" stroke-linecap="butt" stroke-dasharray="3,3" stroke-miterlimit="4" stroke-linejoin="miter" fill="none" stroke="#cfcfcf" d="M0 0H1075.36"/>
<path transform="matrix(1.4919666,0,0,1.5288184,163.97644,82.2052)" stroke-width="3" stroke-linecap="butt" stroke-miterlimit="2" stroke-linejoin="miter" fill="none" stroke="#4c6cb3" stroke-opacity=".898041" d="M0 0 4.14 3 8.27 8.67 12.41 6.62 16.54-2.2 24.82 12.3 28.95 20.65 37.22 9.3 41.36 17.65 45.5 21.28 49.63 26.64 53.77 3.16 57.9 15.61 62.04 25.22 66.18 31.05 70.31 33.73 74.45 27.58 78.58 23.64 82.72 22.22 86.86 26.64 90.99 35.78 99.26 40.98 103.4 37.83 107.54 30.89 111.67 35.46 115.81 44.29 119.94 39.72 124.08 24.75 128.22 27.58 132.35 33.73 136.49 46.02 144.76 53.9 148.9 48.23 153.03 56.42 157.17 67.14 161.3 69.5 165.44 56.58 169.58 51.38 173.71 69.66 177.85 73.92 181.98 75.18 190.26 83.37 194.39 84.95 198.53 88.57 202.66 80.69 210.94 87.79 215.07 94.25 219.21 103.55 223.34 93.93 227.48 101.81 231.62 113.48 235.75 125.77 239.89 121.36 244.02 132.7 248.16 117.57 252.3 135.38 256.43 139.79 264.7 147.52 268.84 155.4 272.98 163.91 277.11 160.44 281.25 150.98 285.38 165.96 289.52 173.05 293.66 178.56 297.79 168.48 301.93 173.36 306.06 176.2 310.2 182.35 314.34 192.12 318.47 190.7 322.61 185.66 326.74 196.85 330.88 199.68 335.02 207.72 339.15 207.56 343.29 197.63 347.42 210.87 351.56 218.59 355.7 213.71 359.83 223.32 363.97 220.49 368.1 216.07 372.24 218.91 376.38 229.63 380.51 220.33 384.65 201.42 388.78 225.21 392.92 232.94 397.06 237.82 401.19 215.92 405.33 235.93 409.46 243.97 413.6 247.28 417.74 255 421.87 236.88 426.01 233.09 430.14 229.63 434.28 237.66 438.42 229.94 442.55 255.32 446.69 254.84 450.82 256.58 459.1 262.88 463.23 267.61 471.5 242.23 475.64 253.42 479.78 248.7 483.91 269.18 488.05 262.88 492.18 271.08 500.46 264.61 504.59 271.08 508.73 258.15 512.86 273.6 517 283.68 521.14 277.06 525.27 274.86 529.41 271.08 533.54 278.64 537.68 275.65 541.82 270.6 545.95 280.37 550.09 281.95 554.22 276.75 558.36 270.29 562.5 283.68 566.63 263.51 570.77 259.26 574.9 276.43 579.04 283.05 583.18 290.3 587.31 292.67 591.45 291.88 595.58 299.76 599.72 301.02 603.86 293.77 607.99 302.91 612.13 300.23 616.26 298.02 620.4 289.83 624.54 283.37 628.67 280.85 632.81 288.25 636.94 293.45 641.08 295.98 645.22 297.39 649.35 302.44 653.49 305.12 657.62 304.33 661.76 313.63 665.9 312.68 670.03 308.11 674.17 305.75 678.3 299.76 690.71 308.27 694.85 314.73 698.98 313.15 703.12 321.66 707.26 311.74 711.39 315.2 715.53 312.84 719.66 318.67 723.8 308.74 727.94 304.17 732.07 302.28 736.21 319.3 740.34 321.35 744.48 322.3 748.62 320.25 752.75 324.5 756.89 325.92 761.02 321.66 765.16 318.2 769.3 321.51 773.43 312.37 777.57 305.9 781.7 311.11 785.84 319.62 789.98 325.45 794.11 333.96 798.25 328.6 802.38 321.35 806.52 324.19 810.66 333.96 814.79 317.88 818.93 323.87 827.2 316.31 831.34 318.2 835.47 313.78 839.61 313.47 843.74 315.05 847.88 312.68 852.02 316.94 856.15 324.34 860.29 333.8 864.42 337.58 872.7 327.5 876.83 332.22 880.97 334.27 885.1 335.06 893.38 324.19 897.51 323.24 901.65 330.65 905.78 335.22 909.92 332.07 914.06 337.11 918.19 339.47 922.33 343.26 926.46 337.11 930.6 334.12 938.87 323.4 943.01 335.69 947.14 342 951.28 344.36 955.42 339.16 959.55 337.27 963.69 330.65 967.82 335.85 971.96 342.31 976.1 346.41 980.23 336.16 984.37 334.59 988.5 330.33 992.64 321.19 996.78 324.19 1000.91 331.12 1009.18 344.67 1013.32 339.47 1021.59 344.2 1025.73 343.73 1029.86 340.73 1034 342"/>
<path transform="matrix(1.4919666,0,0,1.5288184,163.97643,82.205448)" stroke-width="3" stroke-linecap="butt" stroke-miterlimit="2" stroke-linejoin="miter" fill="none" stroke="#5c7866" stroke-opacity=".898041" d="M0 0 4.14 3 8.27 8.67 12.41 6.62 16.54-2.2 24.82 12.3 28.95 20.65 37.22 9.3 41.36 17.65 45.5 21.28 49.63 26.64 53.77 3.16 57.9 15.61 62.04 25.22 66.18 31.05 70.31 33.73 74.45 27.58 78.58 23.64 82.72 22.22 86.86 26.64 90.99 35.78 99.26 40.98 103.4 37.83 107.54 30.89 111.67 35.46 115.81 44.29 119.94 39.72 124.08 24.75 128.22 27.58 132.35 33.73 136.49 46.02 144.76 53.9 148.9 48.23 153.03 56.42 157.17 67.14 161.3 69.5 165.44 56.58 169.58 51.38 173.71 69.66 177.85 73.92 181.98 75.18 186.12 79.43 190.26 48.7 194.39 37.04 198.53 42.87 202.66 46.65 206.8 55.79 210.94 58.16 215.07 59.58 219.21 56.58 223.34 60.68 227.48 73.76 231.62 83.37 235.75 85.74 239.89 79.12 244.02 74.55 248.16 81.8 252.3 92.36 256.43 99.29 260.57 100.39 264.7 97.56 268.84 105.12 272.98 110.48 277.11 101.18 281.25 95.82 289.52 110.32 293.66 112.84 297.79 117.42 301.93 111.58 306.06 119.31 310.2 134.59 314.34 133.81 318.47 151.14 322.61 142.79 326.74 127.19 330.88 145 335.02 148.94 339.15 152.24 343.29 134.12 347.42 155.24 351.56 149.57 355.7 160.6 359.83 150.04 363.97 159.18 368.1 173.05 372.24 157.45 376.38 166.74 380.51 150.04 384.65 162.65 388.78 167.85 392.92 167.37 397.06 179.51 401.19 166.74 405.33 171.31 409.46 184.4 413.6 179.51 417.74 167.06 421.87 133.81 426.01 127.82 430.14 125.77 434.28 131.13 438.42 122.14 442.55 126.08 446.69 130.97 450.82 132.07 454.96 146.73 459.1 138.53 463.23 141.53 467.37 129.55 471.5 133.65 475.64 145 479.78 150.35 483.91 148.3 488.05 135.22 492.18 146.57 496.32 157.76 500.46 163.12 504.59 157.6 508.73 166.11 512.86 173.36 517 168 521.14 164.22 525.27 166.9 529.41 176.36 533.54 179.35 537.68 191.01 541.82 194.8 545.95 192.59 550.09 181.87 554.22 183.92 558.36 180.46 562.5 202.83 566.63 197.63 570.77 195.43 574.9 196.06 579.04 199.52 583.18 198.26 587.31 210.08 591.45 215.76 595.58 210.87 599.72 218.59 603.86 223.8 607.99 210.4 612.13 201.57 616.26 195.43 624.54 202.52 628.67 208.04 632.81 201.1 636.94 205.67 641.08 216.86 645.22 214.02 649.35 212.45 653.49 163.75 661.76 157.13 665.9 172.89 670.03 163.91 674.17 166.74 678.3 158.71 682.44 176.83 686.58 178.88 690.71 184.08 698.98 175.88 703.12 190.7 707.26 188.49 711.39 195.58 715.53 205.83 719.66 197.63 723.8 196.06 727.94 186.92 736.21 194.48 740.34 185.97 744.48 190.86 748.62 209.45 752.75 210.4 756.89 213.39 761.02 226.16 765.16 224.11 769.3 214.97 773.43 218.59 777.57 222.69 781.7 232.62 785.84 236.09 789.98 229.31 794.11 238.29 798.25 229 802.38 220.33 806.52 233.09 814.79 248.22 818.93 237.82 823.06 233.09 827.2 231.52 831.34 234.67 835.47 242.71 839.61 255.16 843.74 251.53 847.88 249.48 852.02 257.21 856.15 258.15 860.29 255.16 864.42 259.26 868.56 253.58 872.7 267.45 876.83 272.81 880.97 264.14 885.1 200.31 889.24 198.26 893.38 206.62 897.51 210.4 901.65 211.98 905.78 210.56 909.92 204.57 914.06 200.16 918.19 205.2 922.33 214.02 926.46 218.44 930.6 222.85 934.74 220.49 938.87 230.89 943.01 234.83 947.14 239.56 951.28 233.09 955.42 229 959.55 240.97 963.69 248.38 967.82 243.34 971.96 242.55 976.1 238.29 980.23 242.55 984.37 248.07 988.5 251.85 992.64 267.92 996.78 262.41 1000.91 259.1 1005.05 271.55 1009.18 272.65 1013.32 274.07 1017.46 267.92 1025.73 273.28 1029.86 269.81 1034 274.07"/>
<path transform="matrix(1.4919666,0,0,1.5288184,163.97641,82.20569)" stroke-width="3" stroke-linecap="butt" stroke-miterlimit="2" stroke-linejoin="miter" fill="none" stroke="#6f4b3e" stroke-opacity=".898041" d="M0 0 4.14 3 8.27 8.67 12.41 6.62 16.54-2.2 24.82 12.3 28.95 20.65 37.22 9.3 41.36 17.65 45.5 21.28 49.63 26.64 53.77 3.16 57.9 15.61 62.04 25.22 66.18 31.05 70.31 33.73 74.45 27.58 78.58 23.64 82.72 22.22 86.86 26.64 90.99 35.78 99.26 40.98 103.4 37.83 107.54 30.89 111.67 35.46 115.81 44.29 119.94 39.72 124.08 24.75 128.22 27.58 132.35 33.73 136.49 46.02 144.76 53.9 148.9 48.23 153.03 56.42 157.17 67.14 161.3 69.5 165.44 56.58 169.58 51.38 173.71 69.66 177.85 73.92 181.98 75.18 186.12 79.43 190.26 60.52 194.39 52.96 198.53 61.31 202.66 66.98 206.8 74.08 210.94 81.8 215.07 65.41 219.21 85.42 223.34 88.89 227.48 94.09 231.62 92.2 235.75 99.76 239.89 95.67 244.02 107.33 248.16 114.74 252.3 104.81 256.43 109.85 260.57 118.2 264.7 113.32 268.84 110.01 272.98 117.42 277.11 126.87 281.25 123.88 285.38 132.54 289.52 136.96 293.66 128.45 297.79 140.58 301.93 143.26 306.06 147.83 310.2 138.85 314.34 157.29 318.47 149.88 322.61 154.45 326.74 161.07 330.88 173.05 335.02 166.59 339.15 163.75 343.29 153.66 347.42 159.97 355.7 176.83 359.83 177.15 363.97 179.67 368.1 174.94 372.24 180.3 376.38 180.14 380.51 173.52 384.65 186.44 388.78 188.81 392.92 193.85 397.06 194.64 401.19 197.63 405.33 196.85 409.46 192.43 413.6 195.74 417.74 201.57 421.87 160.44 426.01 164.22 430.14 172.58 434.28 167.06 438.42 172.1 442.55 167.85 446.69 176.52 450.82 179.35 454.96 184.4 459.1 174.78 463.23 197.95 467.37 195.11 471.5 185.34 475.64 188.65 479.78 191.17 483.91 195.43 488.05 199.52 492.18 205.2 496.32 202.52 500.46 208.04 504.59 185.97 508.73 190.54 521.14 218.28 525.27 211.82 529.41 215.6 533.54 224.27 537.68 227.74 541.82 220.33 545.95 216.23 550.09 231.36 554.22 237.82 558.36 234.35 562.5 241.76 566.63 246.65 570.77 251.06 574.9 248.85 579.04 242.71 583.18 239.24 587.31 252.16 591.45 245.7 595.58 253.9 599.72 251.53 603.86 259.26 607.99 258.15 612.13 253.11 616.26 258.31 620.4 269.03 624.54 273.44 628.67 262.88 632.81 265.09 636.94 258.47 641.08 261.46 645.22 268.08 649.35 269.66 653.49 223.01 657.62 226.16 661.76 239.24 665.9 231.52 670.03 238.92 674.17 233.09 678.3 243.5 682.44 248.38 686.58 239.4 690.71 242.39 694.85 247.44 698.98 249.64 707.26 257.68 711.39 259.1 715.53 253.9 719.66 267.61 723.8 262.41 727.94 247.59 732.07 242.39 736.21 251.69 740.34 248.22 744.48 255.63 748.62 262.88 752.75 281.16 761.02 269.34 765.16 274.23 769.3 270.76 773.43 272.65 781.7 262.88 785.84 269.66 789.98 278.32 794.11 283.37 798.25 280.53 802.38 288.1 806.52 284.47 810.66 278.8 814.79 289.67 818.93 290.78 823.06 292.04 827.2 278.96 831.34 275.33 835.47 274.54 843.74 286.84 847.88 290.62 852.02 283.37 856.15 297.39 860.29 299.76 864.42 294.72 868.56 299.76 872.7 301.02 880.97 305.43 885.1 251.53 889.24 253.42 893.38 263.04 897.51 249.01 901.65 255.16 909.92 265.72 914.06 272.65 918.19 278.8 922.33 282.11 926.46 286.84 930.6 288.88 934.74 279.59 938.87 276.59 943.01 288.57 947.14 294.4 951.28 292.98 955.42 297.39 959.55 294.24 963.69 289.99 967.82 287.15 971.96 294.72 976.1 295.66 980.23 299.92 996.78 305.43 1000.91 300.86 1005.05 302.28 1009.18 307.95 1013.32 306.69 1017.46 311.89 1021.59 308.74 1025.73 307.32 1034 314.42"/>
<path transform="matrix(1.4919666,0,0,1.5288184,163.9764,82.20593)" stroke-width="3" stroke-linecap="butt" stroke-miterlimit="2" stroke-linejoin="miter" fill="none" stroke="#444f5a" stroke-opacity=".898041" d="M0 0 4.14 3 8.27 8.67 12.41 6.62 16.54-2.2 24.82 12.3 28.95 20.65 37.22 9.3 41.36 17.65 45.5 21.28 49.63 26.64 53.77 3.16 57.9 15.61 62.04 25.22 66.18 31.05 70.31 33.73 74.45 27.58 78.58 23.64 82.72 22.22 86.86 26.64 90.99 35.78 99.26 40.98 103.4 37.83 107.54 30.89 111.67 35.46 115.81 44.29 119.94 39.72 124.08 24.75 128.22 27.58 132.35 33.73 136.49 46.02 144.76 53.9 148.9 48.23 153.03 56.42 157.17 67.14 161.3 69.5 165.44 56.58 169.58 51.38 173.71 69.66 177.85 73.92 181.98 75.18 186.12 79.43"/>
<path transform="matrix(1.4919666,0,0,1.5288184,130.13866,624.17129)" stroke-width="2" stroke-linecap="butt" stroke-miterlimit="4" stroke-linejoin="miter" fill="none" stroke="#3c3c3c" d="M0 0H1079.36M0-396H1079.36"/>
<path transform="matrix(1.4919666,0,0,1.5288184,131.63062,20.28833)" stroke-width="2" stroke-linecap="butt" stroke-miterlimit="4" stroke-linejoin="miter" fill="none" stroke="#3c3c3c" d="M0 0V394M1077.36 0V394"/>
<g clip-path="url(#clip_1)">
<text fill="#2a3f5f" xml:space="preserve" transform="matrix(.987873 0 -0 1.0122758 -31.57964 1323.1514)" font-size="30.205603" font-family="OpenSans"><tspan y="-652.74679" x="189.32132">0</tspan></text>
</g>
<g clip-path="url(#clip_2)">
<text fill="#2a3f5f" xml:space="preserve" transform="matrix(.987873 0 -0 1.0122758 -31.57964 1323.1514)" font-size="30.205603" font-family="OpenSans"><tspan y="-652.7469" x="421.51518">&#x003c;</tspan></text>
</g>
<g clip-path="url(#clip_3)">
<text fill="#2a3f5f" xml:space="preserve" transform="matrix(.987873 0 -0 1.0122758 -31.57964 1323.1514)" font-size="30.205603" font-family="OpenSans"><tspan y="-652.7469" x="438.7861 446.3375 464.46089 479.5637 496.17677 508.259">insert</tspan></text>
</g>
<g clip-path="url(#clip_4)">
<text fill="#2a3f5f" xml:space="preserve" transform="matrix(.987873 0 -0 1.0122758 -31.57964 1323.1514)" font-size="30.205603" font-family="OpenSans"><tspan y="-652.74679" x="519.3148">&#x003e;</tspan></text>
</g>
<g clip-path="url(#clip_5)">
<text fill="#2a3f5f" xml:space="preserve" transform="matrix(.987873 0 -0 1.0122758 -31.57964 1323.1514)" font-size="30.205603" font-family="OpenSans"><tspan y="-652.7469" x="771.32669">&#x003c;</tspan></text>
</g>
<g clip-path="url(#clip_6)">
<text fill="#2a3f5f" xml:space="preserve" transform="matrix(.987873 0 -0 1.0122758 -31.57964 1323.1514)" font-size="30.205603" font-family="OpenSans"><tspan y="-652.7469" x="788.59756 796.149 814.27236 829.3751 845.9882 858.0705">insert</tspan></text>
</g>
<g clip-path="url(#clip_7)">
<text fill="#2a3f5f" xml:space="preserve" transform="matrix(.987873 0 -0 1.0122758 -31.57964 1323.1514)" font-size="30.205603" font-family="OpenSans"><tspan y="-652.74679" x="869.1263">&#x003e;</tspan></text>
</g>
<g clip-path="url(#clip_8)">
<text fill="#2a3f5f" xml:space="preserve" transform="matrix(.987873 0 -0 1.0122758 -31.57964 1323.1514)" font-size="30.205603" font-family="OpenSans"><tspan y="-652.74679" x="1121.1232">&#x003c;</tspan></text>
</g>
<g clip-path="url(#clip_9)">
<text fill="#2a3f5f" xml:space="preserve" transform="matrix(.987873 0 -0 1.0122758 -31.57964 1323.1514)" font-size="30.205603" font-family="OpenSans"><tspan y="-652.74679" x="1138.394 1145.9454 1164.0687 1179.1715 1195.7846 1207.8668">insert</tspan></text>
</g>
<g clip-path="url(#clip_10)">
<text fill="#2a3f5f" xml:space="preserve" transform="matrix(.987873 0 -0 1.0122758 -31.57964 1323.1514)" font-size="30.205603" font-family="OpenSans"><tspan y="-652.74679" x="1218.9227">&#x003e;</tspan></text>
</g>
<g clip-path="url(#clip_11)">
<text fill="#2a3f5f" xml:space="preserve" transform="matrix(.987873 0 -0 1.0122758 -31.57964 1323.1514)" font-size="30.205603" font-family="OpenSans"><tspan y="-652.7469" x="1470.9345">&#x003c;</tspan></text>
</g>
<g clip-path="url(#clip_12)">
<text fill="#2a3f5f" xml:space="preserve" transform="matrix(.987873 0 -0 1.0122758 -31.57964 1323.1514)" font-size="30.205603" font-family="OpenSans"><tspan y="-652.7469" x="1488.2056 1495.757 1513.8803 1528.983 1545.5961 1557.6784">insert</tspan></text>
</g>
<g clip-path="url(#clip_13)">
<text fill="#2a3f5f" xml:space="preserve" transform="matrix(.987873 0 -0 1.0122758 -31.57964 1323.1514)" font-size="30.205603" font-family="OpenSans"><tspan y="-652.74679" x="1568.7341">&#x003e;</tspan></text>
</g>
<g clip-path="url(#clip_14)">
<text fill="#2a3f5f" xml:space="preserve" transform="matrix(.987873 0 -0 1.0122758 -31.57964 1323.1514)" font-size="30.205603" font-family="OpenSans"><tspan y="-652.7469" x="1733.6818 1750.2949 1768.4182">250</tspan></text>
</g>
<g clip-path="url(#clip_15)">
<text fill="#2a3f5f" xml:space="preserve" transform="matrix(.987873 0 -0 1.0122758 -31.57964 1323.1514)" font-size="30.205603" font-family="OpenSans"><tspan y="-681.44216" x="97.81167">0</tspan></text>
</g>
<g clip-path="url(#clip_16)">
<text fill="#2a3f5f" xml:space="preserve" transform="matrix(.987873 0 -0 1.0122758 -31.57964 1323.1514)" font-size="30.205603" font-family="OpenSans"><tspan y="-681.44216" x="115.08251">.</tspan></text>
</g>
<g clip-path="url(#clip_17)">
<text fill="#2a3f5f" xml:space="preserve" transform="matrix(.987873 0 -0 1.0122758 -31.57964 1323.1514)" font-size="30.205603" font-family="OpenSans"><tspan y="-681.44216" x="123.12059 139.73369">05</tspan></text>
</g>
<g clip-path="url(#clip_18)">
<text fill="#2a3f5f" xml:space="preserve" transform="matrix(.987873 0 -0 1.0122758 -31.57964 1323.1514)" font-size="30.205603" font-family="OpenSans"><tspan y="-800.45199" x="97.81167">0</tspan></text>
</g>
<g clip-path="url(#clip_19)">
<text fill="#2a3f5f" xml:space="preserve" transform="matrix(.987873 0 -0 1.0122758 -31.57964 1323.1514)" font-size="30.205603" font-family="OpenSans"><tspan y="-800.45199" x="115.08251">.</tspan></text>
</g>
<g clip-path="url(#clip_20)">
<text fill="#2a3f5f" xml:space="preserve" transform="matrix(.987873 0 -0 1.0122758 -31.57964 1323.1514)" font-size="30.205603" font-family="OpenSans"><tspan y="-800.45199" x="123.12059 139.73369">10</tspan></text>
</g>
<g clip-path="url(#clip_21)">
<text fill="#2a3f5f" xml:space="preserve" transform="matrix(.987873 0 -0 1.0122758 -31.57964 1323.1514)" font-size="30.205603" font-family="OpenSans"><tspan y="-919.462" x="97.81167">0</tspan></text>
</g>
<g clip-path="url(#clip_22)">
<text fill="#2a3f5f" xml:space="preserve" transform="matrix(.987873 0 -0 1.0122758 -31.57964 1323.1514)" font-size="30.205603" font-family="OpenSans"><tspan y="-919.462" x="115.08251">.</tspan></text>
</g>
<g clip-path="url(#clip_23)">
<text fill="#2a3f5f" xml:space="preserve" transform="matrix(.987873 0 -0 1.0122758 -31.57964 1323.1514)" font-size="30.205603" font-family="OpenSans"><tspan y="-919.462" x="123.12059 139.73369">15</tspan></text>
</g>
<g clip-path="url(#clip_24)">
<text fill="#2a3f5f" xml:space="preserve" transform="matrix(.987873 0 -0 1.0122758 -31.57964 1323.1514)" font-size="30.205603" font-family="OpenSans"><tspan y="-1038.4719" x="97.81167">0</tspan></text>
</g>
<g clip-path="url(#clip_25)">
<text fill="#2a3f5f" xml:space="preserve" transform="matrix(.987873 0 -0 1.0122758 -31.57964 1323.1514)" font-size="30.205603" font-family="OpenSans"><tspan y="-1038.4719" x="115.08251">.</tspan></text>
</g>
<g clip-path="url(#clip_26)">
<text fill="#2a3f5f" xml:space="preserve" transform="matrix(.987873 0 -0 1.0122758 -31.57964 1323.1514)" font-size="30.205603" font-family="OpenSans"><tspan y="-1038.4719" x="123.12059 139.73369">20</tspan></text>
</g>
<g clip-path="url(#clip_27)">
<text fill="#2a3f5f" xml:space="preserve" transform="matrix(.987873 0 -0 1.0122758 -31.57964 1323.1514)" font-size="30.205603" font-family="OpenSans"><tspan y="-1157.4817" x="97.81167">0</tspan></text>
</g>
<g clip-path="url(#clip_28)">
<text fill="#2a3f5f" xml:space="preserve" transform="matrix(.987873 0 -0 1.0122758 -31.57964 1323.1514)" font-size="30.205603" font-family="OpenSans"><tspan y="-1157.4817" x="115.08251">.</tspan></text>
</g>
<g clip-path="url(#clip_29)">
<text fill="#2a3f5f" xml:space="preserve" transform="matrix(.987873 0 -0 1.0122758 -31.57964 1323.1514)" font-size="30.205603" font-family="OpenSans"><tspan y="-1157.4817" x="123.12059 139.73369">25</tspan></text>
</g>
<g clip-path="url(#clip_30)">
<text fill="#2a3f5f" xml:space="preserve" transform="matrix(.987873 0 -0 1.0122758 -31.57964 1323.1514)" font-size="30.205603" font-family="OpenSans"><tspan y="-1276.4917" x="97.81167">0</tspan></text>
</g>
<g clip-path="url(#clip_31)">
<text fill="#2a3f5f" xml:space="preserve" transform="matrix(.987873 0 -0 1.0122758 -31.57964 1323.1514)" font-size="30.205603" font-family="OpenSans"><tspan y="-1276.4917" x="115.08251">.</tspan></text>
</g>
<g clip-path="url(#clip_32)">
<text fill="#2a3f5f" xml:space="preserve" transform="matrix(.987873 0 -0 1.0122758 -31.57964 1323.1514)" font-size="30.205603" font-family="OpenSans"><tspan y="-1276.4917" x="123.12059 139.73369">30</tspan></text>
</g>
<path transform="matrix(1.4919666,0,0,1.5288184,441.66127,622.64248)" stroke-width="3" stroke-linecap="butt" stroke-dasharray="15,15" stroke-miterlimit="4" stroke-linejoin="miter" fill="none" stroke="#824880" d="M0 0V-394"/>
<path transform="matrix(1.4919666,0,0,1.5288184,787.2305,622.64248)" stroke-width="3" stroke-linecap="butt" stroke-dasharray="15,15" stroke-miterlimit="4" stroke-linejoin="miter" fill="none" stroke="#824880" d="M0 0V-394"/>
<path transform="matrix(1.4919666,0,0,1.5288184,1132.785,622.64248)" stroke-width="3" stroke-linecap="butt" stroke-dasharray="15,15" stroke-miterlimit="4" stroke-linejoin="miter" fill="none" stroke="#824880" d="M0 0V-394"/>
<path transform="matrix(1.4919666,0,0,1.5288184,1478.3544,622.64248)" stroke-width="3" stroke-linecap="butt" stroke-dasharray="15,15" stroke-miterlimit="4" stroke-linejoin="miter" fill="none" stroke="#824880" d="M0 0V-394"/>
<path transform="matrix(1.5439303,0,0,1.492114,-31.57964,1323.1515)" d="M1199.033-880.595H1849.033V-430.59498H1199.033Z" fill="#ffffff"/>
<path transform="matrix(1.5439303,0,0,1.492114,1908.5746,19.64856)" stroke-width="1.5" stroke-linecap="butt" stroke-dasharray="9,9" stroke-miterlimit="4" stroke-linejoin="miter" fill="none" stroke="#ffffff" d="M0 0V406"/>
<path transform="matrix(1.5439303,0,0,1.492114,2054.3526,19.64856)" stroke-width="1.5" stroke-linecap="butt" stroke-dasharray="9,9" stroke-miterlimit="4" stroke-linejoin="miter" fill="none" stroke="#ffffff" d="M0 0V406"/>
<path transform="matrix(1.5439303,0,0,1.492114,2248.7027,19.64856)" stroke-width="1.5" stroke-linecap="butt" stroke-dasharray="9,9" stroke-miterlimit="4" stroke-linejoin="miter" fill="none" stroke="#ffffff" d="M0 0V406"/>
<path transform="matrix(1.5439303,0,0,1.492114,2414.706,19.64856)" stroke-width="1.5" stroke-linecap="butt" stroke-dasharray="9,9" stroke-miterlimit="4" stroke-linejoin="miter" fill="none" stroke="#ffffff" d="M0 0V406"/>
<path transform="matrix(1.5439303,0,0,1.492114,2572.6192,19.64856)" stroke-width="1.5" stroke-linecap="butt" stroke-dasharray="9,9" stroke-miterlimit="4" stroke-linejoin="miter" fill="none" stroke="#ffffff" d="M0 0V406"/>
<path transform="matrix(1.5439303,0,0,1.492114,2718.3817,19.64856)" stroke-width="1.5" stroke-linecap="butt" stroke-dasharray="9,9" stroke-miterlimit="4" stroke-linejoin="miter" fill="none" stroke="#ffffff" d="M0 0V406"/>
<path transform="matrix(1.5439303,0,0,1.492114,1872.138,515.29879)" stroke-width="1.5" stroke-linecap="butt" stroke-dasharray="3,3" stroke-miterlimit="4" stroke-linejoin="miter" fill="none" stroke="#cfcfcf" d="M0 0H574.34"/>
<path transform="matrix(1.5439303,0,0,1.492114,1872.138,405.15089)" stroke-width="1.5" stroke-linecap="butt" stroke-dasharray="3,3" stroke-miterlimit="4" stroke-linejoin="miter" fill="none" stroke="#cfcfcf" d="M0 0H574.34"/>
<path transform="matrix(1.5439303,0,0,1.492114,1872.138,295.01795)" stroke-width="1.5" stroke-linecap="butt" stroke-dasharray="3,3" stroke-miterlimit="4" stroke-linejoin="miter" fill="none" stroke="#cfcfcf" d="M0 0H574.34"/>
<path transform="matrix(1.5439303,0,0,1.492114,1872.138,184.87024)" stroke-width="1.5" stroke-linecap="butt" stroke-dasharray="3,3" stroke-miterlimit="4" stroke-linejoin="miter" fill="none" stroke="#cfcfcf" d="M0 0H574.34"/>
<path transform="matrix(1.5439303,0,0,1.492114,1872.138,74.72229)" stroke-width="1.5" stroke-linecap="butt" stroke-dasharray="3,3" stroke-miterlimit="4" stroke-linejoin="miter" fill="none" stroke="#cfcfcf" d="M0 0H574.34"/>
<path transform="matrix(1.5439303,0,0,1.492114,1908.5746,612.2266)" stroke-width="3" stroke-linecap="butt" stroke-miterlimit="2" stroke-linejoin="miter" fill="none" stroke="#4c6cb3" stroke-opacity=".898041" d="M0 0 26.23-1.47 52.45-15.5 78.68-29.53 104.91-48.72 131.13-111.46 157.36-142.47 183.58-200.78 209.81-228.83 236.03-270.91 262.26-291.58 288.48-321.11 314.71-316.68 340.94-318.89 367.16-306.34 393.39-316.68 419.61-290.84 445.84-279.03 472.06-260.58 498.29-232.53 524.51-217.02"/>
<g clip-path="url(#clip_33)">
<path transform="matrix(1.5439303,0,0,1.492114,1917.8383,612.2266)" d="M0 0C0 3.314-2.686 6-6 6-9.314 6-12 3.314-12 0-12-3.314-9.314-6-6-6-2.686-6 0-3.314 0 0" fill="#4c6cb3"/>
<path transform="matrix(1.5439303,0,0,1.492114,1958.3357,610.0331)" d="M0 0C0 3.314-2.686 6-6 6-9.314 6-12 3.314-12 0-12-3.314-9.314-6-6-6-2.686-6 0-3.314 0 0" fill="#4c6cb3"/>
<path transform="matrix(1.5439303,0,0,1.492114,1998.8175,589.0989)" d="M0 0C0 3.314-2.686 6-6 6-9.314 6-12 3.314-12 0-12-3.314-9.314-6-6-6-2.686-6 0-3.314 0 0" fill="#4c6cb3"/>
<path transform="matrix(1.5439303,0,0,1.492114,2039.3145,568.16439)" d="M0 0C0 3.314-2.686 6-6 6-9.314 6-12 3.314-12 0-12-3.314-9.314-6-6-6-2.686-6 0-3.314 0 0" fill="#4c6cb3"/>
<path transform="matrix(1.5439303,0,0,1.492114,2079.8118,539.53067)" d="M0 0C0 3.314-2.686 6-6 6-9.314 6-12 3.314-12 0-12-3.314-9.314-6-6-6-2.686-6 0-3.314 0 0" fill="#4c6cb3"/>
<path transform="matrix(1.5439303,0,0,1.492114,2120.2938,445.91548)" d="M0 0C0 3.314-2.686 6-6 6-9.314 6-12 3.314-12 0-12-3.314-9.314-6-6-6-2.686-6 0-3.314 0 0" fill="#4c6cb3"/>
<path transform="matrix(1.5439303,0,0,1.492114,2160.791,399.64497)" d="M0 0C0 3.314-2.686 6-6 6-9.314 6-12 3.314-12 0-12-3.314-9.314-6-6-6-2.686-6 0-3.314 0 0" fill="#4c6cb3"/>
<path transform="matrix(1.5439303,0,0,1.492114,2201.273,312.63984)" d="M0 0C0 3.314-2.686 6-6 6-9.314 6-12 3.314-12 0-12-3.314-9.314-6-6-6-2.686-6 0-3.314 0 0" fill="#4c6cb3"/>
<path transform="matrix(1.5439303,0,0,1.492114,2241.77,270.786)" d="M0 0C0 3.314-2.686 6-6 6-9.314 6-12 3.314-12 0-12-3.314-9.314-6-6-6-2.686-6 0-3.314 0 0" fill="#4c6cb3"/>
<path transform="matrix(1.5439303,0,0,1.492114,2282.2523,207.9978)" d="M0 0C0 3.314-2.686 6-6 6-9.314 6-12 3.314-12 0-12-3.314-9.314-6-6-6-2.686-6 0-3.314 0 0" fill="#4c6cb3"/>
<path transform="matrix(1.5439303,0,0,1.492114,2322.7493,177.15589)" d="M0 0C0 3.314-2.686 6-6 6-9.314 6-12 3.314-12 0-12-3.314-9.314-6-6-6-2.686-6 0-3.314 0 0" fill="#4c6cb3"/>
<path transform="matrix(1.5439303,0,0,1.492114,2363.2315,133.09387)" d="M0 0C0 3.314-2.686 6-6 6-9.314 6-12 3.314-12 0-12-3.314-9.314-6-6-6-2.686-6 0-3.314 0 0" fill="#4c6cb3"/>
<path transform="matrix(1.5439303,0,0,1.492114,2403.7288,139.70386)" d="M0 0C0 3.314-2.686 6-6 6-9.314 6-12 3.314-12 0-12-3.314-9.314-6-6-6-2.686-6 0-3.314 0 0" fill="#4c6cb3"/>
<path transform="matrix(1.5439303,0,0,1.492114,2444.2259,136.4065)" d="M0 0C0 3.314-2.686 6-6 6-9.314 6-12 3.314-12 0-12-3.314-9.314-6-6-6-2.686-6 0-3.314 0 0" fill="#4c6cb3"/>
<path transform="matrix(1.5439303,0,0,1.492114,2484.7078,155.13233)" d="M0 0C0 3.314-2.686 6-6 6-9.314 6-12 3.314-12 0-12-3.314-9.314-6-6-6-2.686-6 0-3.314 0 0" fill="#4c6cb3"/>
<path transform="matrix(1.5439303,0,0,1.492114,2525.205,139.70386)" d="M0 0C0 3.314-2.686 6-6 6-9.314 6-12 3.314-12 0-12-3.314-9.314-6-6-6-2.686-6 0-3.314 0 0" fill="#4c6cb3"/>
<path transform="matrix(1.5439303,0,0,1.492114,2565.687,178.26001)" d="M0 0C0 3.314-2.686 6-6 6-9.314 6-12 3.314-12 0-12-3.314-9.314-6-6-6-2.686-6 0-3.314 0 0" fill="#4c6cb3"/>
<path transform="matrix(1.5439303,0,0,1.492114,2606.1844,195.88184)" d="M0 0C0 3.314-2.686 6-6 6-9.314 6-12 3.314-12 0-12-3.314-9.314-6-6-6-2.686-6 0-3.314 0 0" fill="#4c6cb3"/>
<path transform="matrix(1.5439303,0,0,1.492114,2646.6658,223.41138)" d="M0 0C0 3.314-2.686 6-6 6-9.314 6-12 3.314-12 0-12-3.314-9.314-6-6-6-2.686-6 0-3.314 0 0" fill="#4c6cb3"/>
<path transform="matrix(1.5439303,0,0,1.492114,2687.1634,265.26515)" d="M0 0C0 3.314-2.686 6-6 6-9.314 6-12 3.314-12 0-12-3.314-9.314-6-6-6-2.686-6 0-3.314 0 0" fill="#4c6cb3"/>
<path transform="matrix(1.5439303,0,0,1.492114,2727.645,288.40785)" d="M0 0C0 3.314-2.686 6-6 6-9.314 6-12 3.314-12 0-12-3.314-9.314-6-6-6-2.686-6 0-3.314 0 0" fill="#4c6cb3"/>
<path transform="matrix(1.5439303,0,0,1.492114,1908.5746,612.2266)" stroke-width="3" stroke-linecap="butt" stroke-miterlimit="2" stroke-linejoin="miter" fill="none" stroke="#5c7866" stroke-opacity=".898041" d="M0 0 26.23-1.47 52.45-15.5 78.68-29.53 104.91-104.82 131.13-140.25 157.36-170.52 183.58-238.43 209.81-254.67 236.03-307.82 262.26-331.44 288.48-340.3 314.71-335.13 340.94-363.18 367.16-356.54 393.39-360.97 419.61-338.82 445.84-351.37 472.06-355.8 498.29-336.61 524.51-330.7"/>
<path transform="matrix(1.5439303,0,0,1.492114,1920.6173,612.2266)" d="M0 0-7.8 7.8-15.6 0-7.8-7.8Z" fill="#5c7866"/>
<path transform="matrix(1.5439303,0,0,1.492114,1961.1149,610.0331)" d="M0 0-7.8 7.8-15.6 0-7.8-7.8Z" fill="#5c7866"/>
<path transform="matrix(1.5439303,0,0,1.492114,2001.5966,589.0989)" d="M0 0-7.8 7.8-15.6 0-7.8-7.8Z" fill="#5c7866"/>
<path transform="matrix(1.5439303,0,0,1.492114,2042.0938,568.16439)" d="M0 0-7.8 7.8-15.6 0-7.8-7.8Z" fill="#5c7866"/>
<path transform="matrix(1.5439303,0,0,1.492114,2082.591,455.82313)" d="M0 0-7.8 7.8-15.6 0-7.8-7.8Z" fill="#5c7866"/>
<path transform="matrix(1.5439303,0,0,1.492114,2123.073,402.9577)" d="M0 0-7.8 7.8-15.6 0-7.8-7.8Z" fill="#5c7866"/>
<path transform="matrix(1.5439303,0,0,1.492114,2163.5704,357.7912)" d="M0 0-7.8 7.8-15.6 0-7.8-7.8Z" fill="#5c7866"/>
<path transform="matrix(1.5439303,0,0,1.492114,2204.052,256.4618)" d="M0 0-7.8 7.8-15.6 0-7.8-7.8Z" fill="#5c7866"/>
<path transform="matrix(1.5439303,0,0,1.492114,2244.5494,232.22986)" d="M0 0-7.8 7.8-15.6 0-7.8-7.8Z" fill="#5c7866"/>
<path transform="matrix(1.5439303,0,0,1.492114,2285.0313,152.9242)" d="M0 0-7.8 7.8-15.6 0-7.8-7.8Z" fill="#5c7866"/>
<path transform="matrix(1.5439303,0,0,1.492114,2325.5286,117.68042)" d="M0 0-7.8 7.8-15.6 0-7.8-7.8Z" fill="#5c7866"/>
<path transform="matrix(1.5439303,0,0,1.492114,2366.0106,104.460208)" d="M0 0-7.8 7.8-15.6 0-7.8-7.8Z" fill="#5c7866"/>
<path transform="matrix(1.5439303,0,0,1.492114,2406.5079,112.17456)" d="M0 0-7.8 7.8-15.6 0-7.8-7.8Z" fill="#5c7866"/>
<path transform="matrix(1.5439303,0,0,1.492114,2447.0052,70.32056)" d="M0 0-7.8 7.8-15.6 0-7.8-7.8Z" fill="#5c7866"/>
<path transform="matrix(1.5439303,0,0,1.492114,2487.4869,80.22827)" d="M0 0-7.8 7.8-15.6 0-7.8-7.8Z" fill="#5c7866"/>
<path transform="matrix(1.5439303,0,0,1.492114,2527.9842,73.61804)" d="M0 0-7.8 7.8-15.6 0-7.8-7.8Z" fill="#5c7866"/>
<path transform="matrix(1.5439303,0,0,1.492114,2568.466,106.66846)" d="M0 0-7.8 7.8-15.6 0-7.8-7.8Z" fill="#5c7866"/>
<path transform="matrix(1.5439303,0,0,1.492114,2608.9635,87.942508)" d="M0 0-7.8 7.8-15.6 0-7.8-7.8Z" fill="#5c7866"/>
<path transform="matrix(1.5439303,0,0,1.492114,2649.445,81.3324)" d="M0 0-7.8 7.8-15.6 0-7.8-7.8Z" fill="#5c7866"/>
<path transform="matrix(1.5439303,0,0,1.492114,2689.9425,109.966068)" d="M0 0-7.8 7.8-15.6 0-7.8-7.8Z" fill="#5c7866"/>
<path transform="matrix(1.5439303,0,0,1.492114,2730.4244,118.784427)" d="M0 0-7.8 7.8-15.6 0-7.8-7.8Z" fill="#5c7866"/>
<path transform="matrix(1.5439303,0,0,1.492114,1908.5746,612.2266)" stroke-width="3" stroke-linecap="butt" stroke-miterlimit="2" stroke-linejoin="miter" fill="none" stroke="#6f4b3e" stroke-opacity=".898041" d="M0 0 26.23-1.47 52.45-15.5 78.68-29.53 104.91-74.55 131.13-81.2 157.36-116.63 183.58-159.45 209.81-175.69 236.03-222.19 262.26-262.05 288.48-279.77 314.71-294.53 340.94-341.04 367.16-341.78 393.39-346.94 419.61-315.94 445.84-325.54 472.06-312.99 498.29-276.08 524.51-261.31"/>
<path transform="matrix(1.5439303,0,0,1.492114,-31.57964,1323.1515)" d="M1261.633-471.455H1251.633V-481.455H1261.633Z" fill="#6f4b3e"/>
<path transform="matrix(1.5439303,0,0,1.492114,-31.57964,1323.1515)" d="M1287.863-472.925H1277.863V-482.925H1287.863Z" fill="#6f4b3e"/>
<path transform="matrix(1.5439303,0,0,1.492114,-31.57964,1323.1515)" d="M1314.083-486.955H1304.083V-496.955H1314.083Z" fill="#6f4b3e"/>
<path transform="matrix(1.5439303,0,0,1.492114,-31.57964,1323.1515)" d="M1340.313-500.985H1330.313V-510.985H1340.313Z" fill="#6f4b3e"/>
<path transform="matrix(1.5439303,0,0,1.492114,-31.57964,1323.1515)" d="M1366.543-546.005H1356.543V-556.005H1366.543Z" fill="#6f4b3e"/>
<path transform="matrix(1.5439303,0,0,1.492114,-31.57964,1323.1515)" d="M1392.763-552.655H1382.763V-562.655H1392.763Z" fill="#6f4b3e"/>
<path transform="matrix(1.5439303,0,0,1.492114,-31.57964,1323.1515)" d="M1418.993-588.085H1408.993V-598.085H1418.993Z" fill="#6f4b3e"/>
<path transform="matrix(1.5439303,0,0,1.492114,-31.57964,1323.1515)" d="M1445.213-630.905H1435.213V-640.905H1445.213Z" fill="#6f4b3e"/>
<path transform="matrix(1.5439303,0,0,1.492114,-31.57964,1323.1515)" d="M1471.443-647.145H1461.443V-657.145H1471.443Z" fill="#6f4b3e"/>
<path transform="matrix(1.5439303,0,0,1.492114,-31.57964,1323.1515)" d="M1497.663-693.645H1487.663V-703.645H1497.663Z" fill="#6f4b3e"/>
<path transform="matrix(1.5439303,0,0,1.492114,-31.57964,1323.1515)" d="M1523.893-733.505H1513.893V-743.505H1523.893Z" fill="#6f4b3e"/>
<path transform="matrix(1.5439303,0,0,1.492114,-31.57964,1323.1515)" d="M1550.113-751.225H1540.113V-761.225H1550.113Z" fill="#6f4b3e"/>
<path transform="matrix(1.5439303,0,0,1.492114,-31.57964,1323.1515)" d="M1576.343-765.985H1566.343V-775.985H1576.343Z" fill="#6f4b3e"/>
<path transform="matrix(1.5439303,0,0,1.492114,-31.57964,1323.1515)" d="M1602.573-812.495H1592.573V-822.495H1602.573Z" fill="#6f4b3e"/>
<path transform="matrix(1.5439303,0,0,1.492114,-31.57964,1323.1515)" d="M1628.793-813.235H1618.793V-823.235H1628.793Z" fill="#6f4b3e"/>
<path transform="matrix(1.5439303,0,0,1.492114,-31.57964,1323.1515)" d="M1655.023-818.395H1645.023V-828.395H1655.023Z" fill="#6f4b3e"/>
<path transform="matrix(1.5439303,0,0,1.492114,-31.57964,1323.1515)" d="M1681.243-787.395H1671.243V-797.395H1681.243Z" fill="#6f4b3e"/>
<path transform="matrix(1.5439303,0,0,1.492114,-31.57964,1323.1515)" d="M1707.473-796.995H1697.473V-806.995H1707.473Z" fill="#6f4b3e"/>
<path transform="matrix(1.5439303,0,0,1.492114,-31.57964,1323.1515)" d="M1733.693-784.445H1723.693V-794.445H1733.693Z" fill="#6f4b3e"/>
<path transform="matrix(1.5439303,0,0,1.492114,-31.57964,1323.1515)" d="M1759.923-747.535H1749.923V-757.535H1759.923Z" fill="#6f4b3e"/>
<path transform="matrix(1.5439303,0,0,1.492114,-31.57964,1323.1515)" d="M1786.143-732.765H1776.143V-742.765H1786.143Z" fill="#6f4b3e"/>
</g>
<path transform="matrix(1.5439303,0,0,1.492114,1869.05,626.9389)" stroke-width="2" stroke-linecap="butt" stroke-miterlimit="4" stroke-linejoin="miter" fill="none" stroke="#3c3c3c" d="M0 0H578.34M0-408H578.34"/>
<path transform="matrix(1.5439303,0,0,1.492114,1870.594,19.64856)" stroke-width="2" stroke-linecap="butt" stroke-miterlimit="4" stroke-linejoin="miter" fill="none" stroke="#3c3c3c" d="M0 0V406M576.34 0V406"/>
<g clip-path="url(#clip_34)">
<text fill="#2a3f5f" xml:space="preserve" transform="matrix(1.0172148 0 -0 .9830766 -31.57964 1323.1514)" font-size="30.356028" font-family="OpenSans"><tspan y="-670.25259" x="1886.1463">0</tspan></text>
</g>
<g clip-path="url(#clip_35)">
<text fill="#2a3f5f" xml:space="preserve" transform="matrix(1.0172148 0 -0 .9830766 -31.57964 1323.1514)" font-size="30.356028" font-family="OpenSans"><tspan y="-670.25259" x="1903.5033">%</tspan></text>
</g>
<g clip-path="url(#clip_36)">
<text fill="#2a3f5f" xml:space="preserve" transform="matrix(1.0172148 0 -0 .9830766 -31.57964 1323.1514)" font-size="30.356028" font-family="OpenSans"><tspan y="-670.25259" x="1992.809">&#x003c;</tspan></text>
</g>
<g clip-path="url(#clip_37)">
<text fill="#2a3f5f" xml:space="preserve" transform="matrix(1.0172148 0 -0 .9830766 -31.57964 1323.1514)" font-size="30.356028" font-family="OpenSans"><tspan y="-670.25259" x="2010.1661 2017.755 2035.9686 2051.1468 2067.8426 2079.985">insert</tspan></text>
</g>
<g clip-path="url(#clip_38)">
<text fill="#2a3f5f" xml:space="preserve" transform="matrix(1.0172148 0 -0 .9830766 -31.57964 1323.1514)" font-size="30.356028" font-family="OpenSans"><tspan y="-670.25259" x="2091.0955">&#x003e;</tspan></text>
</g>
<g clip-path="url(#clip_39)">
<text fill="#2a3f5f" xml:space="preserve" transform="matrix(1.0172148 0 -0 .9830766 -31.57964 1323.1514)" font-size="30.356028" font-family="OpenSans"><tspan y="-670.25259" x="2183.87">&#x003c;</tspan></text>
</g>
<g clip-path="url(#clip_40)">
<text fill="#2a3f5f" xml:space="preserve" transform="matrix(1.0172148 0 -0 .9830766 -31.57964 1323.1514)" font-size="30.356028" font-family="OpenSans"><tspan y="-670.25259" x="2201.2266 2208.8155 2227.0289 2242.207 2258.9029 2271.0455">insert</tspan></text>
</g>
<g clip-path="url(#clip_41)">
<text fill="#2a3f5f" xml:space="preserve" transform="matrix(1.0172148 0 -0 .9830766 -31.57964 1323.1514)" font-size="30.356028" font-family="OpenSans"><tspan y="-670.25259" x="2282.1566">&#x003e;</tspan></text>
</g>
<g clip-path="url(#clip_42)">
<text fill="#2a3f5f" xml:space="preserve" transform="matrix(1.0172148 0 -0 .9830766 -31.57964 1323.1514)" font-size="30.356028" font-family="OpenSans"><tspan y="-670.25247" x="2347.0638">&#x003c;</tspan></text>
</g>
<g clip-path="url(#clip_43)">
<text fill="#2a3f5f" xml:space="preserve" transform="matrix(1.0172148 0 -0 .9830766 -31.57964 1323.1514)" font-size="30.356028" font-family="OpenSans"><tspan y="-670.25247" x="2364.4207 2372.0096 2390.223 2405.4012 2422.097 2434.2396">insert</tspan></text>
</g>
<g clip-path="url(#clip_44)">
<text fill="#2a3f5f" xml:space="preserve" transform="matrix(1.0172148 0 -0 .9830766 -31.57964 1323.1514)" font-size="30.356028" font-family="OpenSans"><tspan y="-670.25247" x="2445.3507">&#x003e;</tspan></text>
</g>
<g clip-path="url(#clip_45)">
<text fill="#2a3f5f" xml:space="preserve" transform="matrix(1.0172148 0 -0 .9830766 -31.57964 1323.1514)" font-size="30.356028" font-family="OpenSans"><tspan y="-670.25247" x="2502.3048">&#x003c;</tspan></text>
</g>
<g clip-path="url(#clip_46)">
<text fill="#2a3f5f" xml:space="preserve" transform="matrix(1.0172148 0 -0 .9830766 -31.57964 1323.1514)" font-size="30.356028" font-family="OpenSans"><tspan y="-670.25259" x="2519.6617 2527.2506 2545.464 2560.6424 2577.3382 2589.4805">insert</tspan></text>
</g>
<g clip-path="url(#clip_47)">
<text fill="#2a3f5f" xml:space="preserve" transform="matrix(1.0172148 0 -0 .9830766 -31.57964 1323.1514)" font-size="30.356028" font-family="OpenSans"><tspan y="-670.25259" x="2600.5914">&#x003e;</tspan></text>
</g>
<g clip-path="url(#clip_48)">
<text fill="#2a3f5f" xml:space="preserve" transform="matrix(1.0172148 0 -0 .9830766 -31.57964 1323.1514)" font-size="30.356028" font-family="OpenSans"><tspan y="-670.25247" x="2664.8917 2681.5875 2699.801">100</tspan></text>
</g>
<g clip-path="url(#clip_49)">
<text fill="#2a3f5f" xml:space="preserve" transform="matrix(1.0172148 0 -0 .9830766 -31.57964 1323.1514)" font-size="30.356028" font-family="OpenSans"><tspan y="-670.25247" x="2716.9622">%</tspan></text>
</g>
<g clip-path="url(#clip_50)">
<text fill="#2a3f5f" xml:space="preserve" transform="matrix(1.0172148 0 -0 .9830766 -31.57964 1323.1514)" font-size="30.356028" font-family="OpenSans"><tspan y="-699.0908" x="1827.6793 1844.3751">48</tspan></text>
</g>
<g clip-path="url(#clip_51)">
<text fill="#2a3f5f" xml:space="preserve" transform="matrix(1.0172148 0 -0 .9830766 -31.57964 1323.1514)" font-size="30.356028" font-family="OpenSans"><tspan y="-811.13479" x="1827.6793 1844.3751">49</tspan></text>
</g>
<g clip-path="url(#clip_52)">
<text fill="#2a3f5f" xml:space="preserve" transform="matrix(1.0172148 0 -0 .9830766 -31.57964 1323.1514)" font-size="30.356028" font-family="OpenSans"><tspan y="-923.1788" x="1827.6793 1844.3751">50</tspan></text>
</g>
<g clip-path="url(#clip_53)">
<text fill="#2a3f5f" xml:space="preserve" transform="matrix(1.0172148 0 -0 .9830766 -31.57964 1323.1514)" font-size="30.356028" font-family="OpenSans"><tspan y="-1035.2077" x="1827.6795 1844.3753">51</tspan></text>
</g>
<g clip-path="url(#clip_54)">
<text fill="#2a3f5f" xml:space="preserve" transform="matrix(1.0172148 0 -0 .9830766 -31.57964 1323.1514)" font-size="30.356028" font-family="OpenSans"><tspan y="-1147.2516" x="1827.6795 1844.3753">52</tspan></text>
</g>
<g clip-path="url(#clip_55)">
<text fill="#2a3f5f" xml:space="preserve" transform="matrix(1.0172148 0 -0 .9830766 -31.57964 1323.1514)" font-size="30.356028" font-family="OpenSans"><tspan y="-1259.2957" x="1827.6795 1844.3753">53</tspan></text>
</g>
<path transform="matrix(1.5439303,0,0,1.492114,2054.3526,625.4468)" stroke-width="2" stroke-linecap="butt" stroke-dasharray="15,15" stroke-miterlimit="4" stroke-linejoin="miter" fill="none" stroke="#824880" d="M0 0V-406"/>
<path transform="matrix(1.5439303,0,0,1.492114,2248.7027,625.4468)" stroke-width="2" stroke-linecap="butt" stroke-dasharray="15,15" stroke-miterlimit="4" stroke-linejoin="miter" fill="none" stroke="#824880" d="M0 0V-406"/>
<path transform="matrix(1.5439303,0,0,1.492114,2414.706,625.4468)" stroke-width="2" stroke-linecap="butt" stroke-dasharray="15,15" stroke-miterlimit="4" stroke-linejoin="miter" fill="none" stroke="#824880" d="M0 0V-406"/>
<path transform="matrix(1.5439303,0,0,1.492114,2572.6192,625.4468)" stroke-width="2" stroke-linecap="butt" stroke-dasharray="15,15" stroke-miterlimit="4" stroke-linejoin="miter" fill="none" stroke="#824880" d="M0 0V-406"/>
<text xml:space="preserve" transform="matrix(0 -1 1 0 -31.57964 1323.1514)" font-size="41.4" font-family="TimesNewRomanPSMT"><tspan y="68.76" x="871.5204 901.4112 912.9204 924.4296 942.7864 963.54849 975.0577 986.5669 1007.329 1028.0869 1038.3955 1066.0093 1084.3661 1095.8753 1107.3844">Attention Ratio</tspan></text>
<text xml:space="preserve" transform="matrix(1 0 -0 1 -31.57964 1323.1514)" font-size="50.04" font-family="TimesNewRomanPSMT"><tspan y="-594.0836" x="477.5037 494.16703 530.2959 546.9592 558.47848 591.6 605.5111 624.95169 650.03176 672.2495 686.16067 695.75839 731.88729 745.7984 759.70956 781.9273 807.0074 820.9185 834.82968 859.9097 884.9898 897.24966 930.62637 952.8441 966.75527 980.6664 1005.74649 1018.1064 1043.1864 1062.627 1075.1069 1087.5869 1123.7158 1145.9336 1171.0137 1193.2315 1209.8948 1232.1126 1246.0237 1259.9348 1285.0149 1310.095 1322.3547 1350.177 1364.0881 1386.3059 1411.386">(A) Visual Attention Ratio vs. Generation Steps</tspan></text>
<g clip-path="url(#clip_56)">
<path transform="matrix(1,0,0,-1,139.93196,515.5121)" d="M0 0C0 2.408 1.952 4.361 4.361 4.361H638.461C640.869 4.361 642.822 2.408 642.822 0V-94.412C642.822-96.82 640.869-98.772 638.461-98.772H4.361C1.952-98.772 0-96.82 0-94.412Z" fill="#ffffff" fill-rule="evenodd"/>
<path transform="matrix(1,0,0,-1,139.93196,515.5121)" stroke-width="2.59" stroke-linecap="butt" stroke-miterlimit="8" stroke-linejoin="miter" fill="none" stroke="#cfcfcf" d="M0 0C0 2.408 1.952 4.361 4.361 4.361H638.461C640.869 4.361 642.822 2.408 642.822 0V-94.412C642.822-96.82 640.869-98.772 638.461-98.772H4.361C1.952-98.772 0-96.82 0-94.412Z"/>
</g>
<text xml:space="preserve" transform="matrix(1 0 -0 1 -31.57964 1323.1514)" font-size="34.56" font-family="TimesNewRomanPSMT"><tspan y="-772.3245" x="253.9566 275.07624 290.42088 307.70088 317.30854 326.9162 336.52388 351.8685 360.5085 383.56004 398.90467 414.2493 427.69316 444.97315 462.25315 471.86085 489.14085">Vanilla Reasoning</tspan></text>
<text xml:space="preserve" transform="matrix(1 0 -0 1 -31.57964 1323.1514)" font-size="34.56" font-family="TimesNewRomanPSMT"><tspan y="-772.25546" x="600.28237 623.2026 632.81027 646.2541 663.5341 678.8788 688.48648 697.0055 720.057 735.4017 752.6817 762.28939 777.63406">Visual Replay</tspan></text>
<text xml:space="preserve" transform="matrix(1 0 -0 1 -31.57964 1323.1514)" font-size="34.56" font-family="TimesNewRomanPSMT"><tspan y="-725.945" x="604.32589 623.524 640.804 656.1487 673.4287 686.87258 695.2706 714.48599 725.99447 743.2745 770.1622 787.4422">Focus Prompt</tspan></text>
<text xml:space="preserve" transform="matrix(1 0 -0 1 -31.57964 1323.1514)" font-size="34.56" font-family="TimesNewRomanPSMT"><tspan y="-725.21926" x="253.99112 265.4996 282.7796 296.22346 311.56809 323.07658 332.68428 348.0289 365.3089 373.84526 393.04335 410.32334 423.76719 433.37489 442.98255 452.5902 469.8702">Inserted Position</tspan></text>
<path transform="matrix(1,0,0,-1,155.24027,539.3168)" stroke-width="6" stroke-linecap="butt" stroke-miterlimit="8" stroke-linejoin="miter" fill="none" stroke="#4c6cb3" stroke-opacity=".901962" d="M0 0H57.94"/>
<path transform="matrix(1,0,0,-1,502.42268,586.2408)" stroke-width="6" stroke-linecap="butt" stroke-miterlimit="8" stroke-linejoin="miter" fill="none" stroke="#6f4b3e" stroke-opacity=".901962" d="M0 0H57.94"/>
<path transform="matrix(1,0,0,-1,503.55543,540.26498)" stroke-width="6" stroke-linecap="butt" stroke-miterlimit="8" stroke-linejoin="miter" fill="none" stroke="#5c7866" stroke-opacity=".901962" d="M0 0H57.94"/>
<path transform="matrix(1,0,0,-1,154.58417,586.98507)" stroke-width="6" stroke-linecap="butt" stroke-dasharray="18,6" stroke-miterlimit="8" stroke-linejoin="miter" fill="none" stroke="#824880" stroke-opacity=".901962" d="M0 0H57.94"/>
<text xml:space="preserve" transform="matrix(0 -1 1 0 -31.57964 1323.1514)" font-size="41.4" font-family="TimesNewRomanPSMT"><tspan y="1834.7339" x="871.5205 901.4113 919.7722 938.1331 958.8911 972.6773 991.0382 1009.39498 1030.1571 1040.4657 1054.252 1088.6926">Accuracy (%)</tspan></text>
<text xml:space="preserve" transform="matrix(1 0 -0 1 -31.57964 1323.1514)" font-size="50.04" font-family="TimesNewRomanPSMT"><tspan y="-594.2229" x="1972.3971 1989.0604 2022.4371 2039.1005 2048.708 2084.837 2107.0548 2129.2725 2154.3526 2171.0159 2193.2337 2215.4515 2240.5316 2253.0115 2278.0916 2297.5323 2310.0123 2322.6124 2355.989 2378.2069 2400.4246 2419.86 2444.945 2470.02 2483.9312 2509.0113 2534.0914 2546.331 2574.1534 2590.8167 2615.8968 2640.9769 2657.6402 2679.858 2699.2987">(B) Accuracy vs. Reasoning Progress</tspan></text>
<g clip-path="url(#clip_57)">
<path transform="matrix(1,0,0,-1,2096.9046,511.93745)" d="M0 0C0 2.408 1.952 4.36 4.36 4.36H647.422C649.83 4.36 651.782 2.408 651.782 0V-94.413C651.782-96.821 649.83-98.773 647.422-98.773H4.36C1.952-98.773 0-96.821 0-94.413Z" fill="#ffffff" fill-rule="evenodd"/>
<path transform="matrix(1,0,0,-1,2096.9046,511.93745)" stroke-width="2.59" stroke-linecap="butt" stroke-miterlimit="8" stroke-linejoin="miter" fill="none" stroke="#cfcfcf" d="M0 0C0 2.408 1.952 4.36 4.36 4.36H647.422C649.83 4.36 651.782 2.408 651.782 0V-94.413C651.782-96.821 649.83-98.773 647.422-98.773H4.36C1.952-98.773 0-96.821 0-94.413Z"/>
</g>
<text xml:space="preserve" transform="matrix(1 0 -0 1 -31.57964 1323.1514)" font-size="34.56" font-family="TimesNewRomanPSMT"><tspan y="-776.1139" x="2222.4864 2243.606 2258.9508 2276.2308 2285.8385 2295.446 2305.0538 2320.3985 2329.0384 2352.0899 2367.4346 2382.7794 2396.2232 2413.5032 2430.7833 2440.3909 2457.671">Vanilla Reasoning</tspan></text>
<path transform="matrix(1,0,0,-1,2114.134,536.44149)" stroke-width="6" stroke-linecap="butt" stroke-miterlimit="8" stroke-linejoin="miter" fill="none" stroke="#4c6cb3" stroke-opacity=".901962" d="M0 0H66.217"/>
<g clip-path="url(#clip_58)">
<path transform="matrix(1,0,0,-1,2138.9307,536.15408)" d="M0 0C0 5.257 4.262 9.519 9.519 9.519 14.776 9.519 19.038 5.257 19.038 0 19.038-5.257 14.776-9.519 9.519-9.519 4.262-9.519 0-5.257 0 0" fill="#4c6cb3" fill-rule="evenodd"/>
</g>
<text xml:space="preserve" transform="matrix(1 0 -0 1 -31.57964 1323.1514)" font-size="34.56" font-family="TimesNewRomanPSMT"><tspan y="-775.1116" x="2569.3787 2592.2989 2601.9066 2615.3504 2632.6304 2647.975 2657.5828 2666.1016 2689.153 2704.4979 2721.7779 2731.3856 2746.7303">Visual Replay</tspan></text>
<path transform="matrix(1,0,0,-1,2460.481,537.15719)" stroke-width="6" stroke-linecap="butt" stroke-miterlimit="8" stroke-linejoin="miter" fill="none" stroke="#5c7866" stroke-opacity=".901962" d="M0 0H66.218"/>
<path transform="matrix(1,0,0,-1,2493.2125,525.4507)" d="M0 0 11.706-11.706 0-23.411-11.706-11.706Z" fill="#5c7866" fill-rule="evenodd"/>
<text xml:space="preserve" transform="matrix(1 0 -0 1 -31.57964 1323.1514)" font-size="34.56" font-family="TimesNewRomanPSMT"><tspan y="-729.5529" x="2574.5152 2593.7132 2610.9932 2626.338 2643.618 2657.0618 2665.4598 2684.675 2696.1837 2713.4637 2740.3514 2757.6314">Focus Prompt</tspan></text>
<path transform="matrix(1,0,0,-1,2460.481,582.7917)" stroke-width="6" stroke-linecap="butt" stroke-miterlimit="8" stroke-linejoin="miter" fill="none" stroke="#6f4b3e" stroke-opacity=".901962" d="M0 0H66.217"/>
<path transform="matrix(1,0,0,-1,-31.57964,1323.1514)" d="M2517.341 749.41H2534.7232V732.02798H2517.341Z" fill="#6f4b3e" fill-rule="evenodd"/>
<text xml:space="preserve" transform="matrix(1 0 -0 1 -31.57964 1323.1514)" font-size="34.56" font-family="TimesNewRomanPSMT"><tspan y="-727.533" x="2228.1685 2239.677 2256.957 2270.401 2285.7457 2297.2542 2306.8619 2322.2066 2339.4866 2348.0228 2367.2208 2384.5008 2397.9447 2407.5523 2417.16 2426.7677 2444.0477">Inserted Position</tspan></text>
<path transform="matrix(1,0,0,-1,2114.134,584.59048)" stroke-width="6" stroke-linecap="butt" stroke-dasharray="18,6" stroke-miterlimit="8" stroke-linejoin="miter" fill="none" stroke="#824880" d="M0 0H66.218"/>
</g>
</g>
</svg>
