<svg xmlns="http://www.w3.org/2000/svg" xmlns:xlink="http://www.w3.org/1999/xlink" xmlns:inkscape="http://www.inkscape.org/namespaces/inkscape" version="1.1" width="2526.3714" height="663.17239" viewBox="0 0 2526.3714 663.17239">
<defs>
<clipPath id="clip_0">
<path transform="matrix(1,0,0,-1,-195.79376,1278.9398)" d="M195.79376 615.76748H2722.165V1278.9398H195.79376Z" clip-rule="evenodd"/>
</clipPath>
<clipPath id="clip_1">
<path transform="matrix(1,0,0,-1,-195.79376,1278.9398)" d="M1010.16 645.84H1918.3679V1294.56H1010.16Z"/>
</clipPath>
<clipPath id="clip_2">
<path transform="matrix(1,0,0,-1,-195.79376,1278.9398)" d="M1888.395 718.772H2717.262V1275.323H1888.395Z"/>
</clipPath>
<clipPath id="clip_3">
<path transform="matrix(1,0,0,-1,-195.79376,1278.9398)" d="M1888.395 718.772H2717.262V1275.323H1888.395Z"/>
</clipPath>
<clipPath id="clip_4">
<path transform="matrix(1,0,0,-1,-195.79376,1278.9398)" d="M1888.395 718.772H2717.262V1275.323H1888.395Z"/>
</clipPath>
<clipPath id="clip_5">
<path transform="matrix(1,0,0,-1,-195.79376,1278.9398)" d="M1888.395 718.772H2717.262V1275.323H1888.395Z"/>
</clipPath>
<clipPath id="clip_6">
<path transform="matrix(1,0,0,-1,-195.79376,1278.9398)" d="M295.696 726.096H1060.353V1265.837H295.696Z"/>
</clipPath>
<clipPath id="clip_7">
<path transform="matrix(1,0,0,-1,-195.79376,1278.9398)" d="M251.887 677.028H1114.781V1273.794H251.887Z"/>
</clipPath>
<clipPath id="clip_8">
<path transform="matrix(1,0,0,-1,-195.79376,1278.9398)" d="M251.887 677.028H1114.781V1273.794H251.887Z"/>
</clipPath>
<clipPath id="clip_9">
<path transform="matrix(1,0,0,-1,-195.79376,1278.9398)" d="M251.887 677.028H1114.781V1273.794H251.887Z"/>
</clipPath>
<clipPath id="clip_10">
<path transform="matrix(1,0,0,-1,-195.79376,1278.9398)" d="M251.887 677.028H1114.781V1273.794H251.887Z"/>
</clipPath>
<clipPath id="clip_11">
<path transform="matrix(1,0,0,-1,-195.79376,1278.9398)" d="M251.887 677.028H1114.781V1273.794H251.887Z"/>
</clipPath>
<clipPath id="clip_12">
<path transform="matrix(1,0,0,-1,-195.79376,1278.9398)" d="M251.887 677.028H1114.781V1273.794H251.887Z"/>
</clipPath>
<clipPath id="clip_13">
<path transform="matrix(1,0,0,-1,-195.79376,1278.9398)" d="M251.887 677.028H1114.781V1273.794H251.887Z"/>
</clipPath>
<clipPath id="clip_14">
<path transform="matrix(1,0,0,-1,-195.79376,1278.9398)" d="M251.887 677.028H1114.781V1273.794H251.887Z"/>
</clipPath>
<clipPath id="clip_15">
<path transform="matrix(1,0,0,-1,-195.79376,1278.9398)" d="M251.887 677.028H1114.781V1273.794H251.887Z"/>
</clipPath>
<clipPath id="clip_16">
<path transform="matrix(1,0,0,-1,-195.79376,1278.9398)" d="M251.887 677.028H1114.781V1273.794H251.887Z"/>
</clipPath>
<clipPath id="clip_17">
<path transform="matrix(1,0,0,-1,-195.79376,1278.9398)" d="M251.887 677.028H1114.781V1273.794H251.887Z"/>
</clipPath>
<clipPath id="clip_18">
<path transform="matrix(1,0,0,-1,-195.79376,1278.9398)" d="M251.887 677.028H1114.781V1273.794H251.887Z"/>
</clipPath>
<clipPath id="clip_19">
<path transform="matrix(1,0,0,-1,-195.79376,1278.9398)" d="M251.887 677.028H1114.781V1273.794H251.887Z"/>
</clipPath>
<clipPath id="clip_20">
<path transform="matrix(1,0,0,-1,-195.79376,1278.9398)" d="M251.887 677.028H1114.781V1273.794H251.887Z"/>
</clipPath>
<clipPath id="clip_21">
<path transform="matrix(1,0,0,-1,-195.79376,1278.9398)" d="M251.887 677.028H1114.781V1273.794H251.887Z"/>
</clipPath>
<clipPath id="clip_22">
<path transform="matrix(1,0,0,-1,-195.79376,1278.9398)" d="M251.887 677.028H1114.781V1273.794H251.887Z"/>
</clipPath>
<clipPath id="clip_23">
<path transform="matrix(1,0,0,-1,-195.79376,1278.9398)" d="M251.887 677.028H1114.781V1273.794H251.887Z"/>
</clipPath>
<clipPath id="clip_24">
<path transform="matrix(1,0,0,-1,-195.79376,1278.9398)" d="M0 0H2880V1620H0Z"/>
</clipPath>
<clipPath id="clip_25">
<path transform="matrix(1,0,0,-1,-195.79376,1278.9398)" d="M0 0H2880V1620H0Z"/>
</clipPath>
<clipPath id="clip_26">
<path transform="matrix(1,0,0,-1,-195.79376,1278.9398)" d="M0 0H2880V1620H0Z"/>
</clipPath>
</defs>
<g>
<g clip-path="url(#clip_0)">
<g inkscape:groupmode="layer" inkscape:label="Background">
<path transform="matrix(1,0,0,-1,-195.79376,1278.9398)" d="M0 0H2880V1620H0Z" fill="#ffffff"/>
</g>
<path transform="matrix(1.2954609,0,0,1.294628,-195.7937,1278.94)" d="M780.769-998.948H1480.769V-498.948H780.769Z" fill="#ffffff"/>
<g clip-path="url(#clip_1)">
<path transform="matrix(1.2954608,0,0,1.294628,1269.073,309.33137)" d="M0 0 65.114 189.104C-39.325 225.065-153.142 169.553-189.104 65.114-225.065-39.325-169.553-153.142-65.114-189.104-44.353-196.252-22.557-199.933-.6-199.999Z" fill="#739880"/>
<path transform="matrix(1.2954608,0,0,1.294628,1269.073,309.33125)" d="M0 0-.6-199.999C109.856-200.331 199.667-111.057 199.999-.6 200.101 33.3 191.584 66.67 175.248 96.375Z" fill="#5e7bbb"/>
<path transform="matrix(1.2954608,0,0,1.294628,1269.073,309.33113)" d="M0 0 175.248 96.375C151.32 139.885 112.063 172.938 65.114 189.104Z" fill="#de95ba"/>
<path transform="matrix(1.2954608,0,0,1.294628,1066.7649,282.85719)" d="M0 0C-11.293 86.249 49.47 165.322 135.718 176.616 159.866 179.778 184.417 177.297 207.444 169.368L224.536 219.008C114.875 256.767-4.633 198.479-42.392 88.818-52.964 58.116-56.271 25.38-52.055-6.816Z" fill="#eeeeee"/>
<path transform="matrix(1.2954608,0,0,1.294628,1268.4602,105.42798)" d="M0 0C-78.9 .237-145.45 58.818-155.694 137.05L-207.75 130.234C-194.091 25.924-105.357-52.184-.157-52.5Z" fill="#a1baaa"/>
<path transform="matrix(1.2954608,0,0,1.294628,1371.4107,132.92993)" d="M0 0C-24.14-13.996-51.566-21.327-79.47-21.243L-79.627-73.743C-42.422-73.855-5.854-64.08 26.333-45.418Z" fill="#eeeeee"/>
<path transform="matrix(1.2954608,0,0,1.294628,1447.8572,407.5865)" d="M0 0C41.247-75.003 15.041-169.218-59.011-212.151L-32.678-257.569C66.057-200.326 100.998-74.705 46.002 25.299Z" fill="#94a7d1"/>
<path transform="matrix(1.2954608,0,0,1.294628,1419.7053,446.8653)" d="M0 0C8.42-9.216 15.715-19.401 21.731-30.34L67.733-5.041C59.713 9.544 49.986 23.123 38.759 35.412Z" fill="#eeeeee"/>
<path transform="matrix(1.2954608,0,0,1.294628,1335.5003,502.12513)" d="M0 0C24.894-8.571 47.241-23.247 65-42.684L103.759-7.272C80.081 18.644 50.284 38.211 17.092 49.64Z" fill="#e3c1d4"/>
</g>
<path transform="matrix(1.2751802,0,0,1.2367789,-195.79376,1278.9398)" d="M1480.884-1031.165H2130.885V-581.16506H1480.884Z" fill="#ffffff"/>
<path transform="matrix(1.2751802,0,0,1.2367789,1871.8662,12.27417)" stroke-width="2" stroke-linecap="butt" stroke-dasharray="3,3" stroke-miterlimit="4" stroke-linejoin="miter" fill="none" stroke="#cfcfcf" d="M0 0V438"/>
<path transform="matrix(1.2751802,0,0,1.2367789,2027.1831,12.274292)" stroke-width="2" stroke-linecap="butt" stroke-dasharray="3,3" stroke-miterlimit="4" stroke-linejoin="miter" fill="none" stroke="#cfcfcf" d="M0 0V438"/>
<path transform="matrix(1.2751802,0,0,1.2367789,2182.4874,12.274414)" stroke-width="2" stroke-linecap="butt" stroke-dasharray="3,3" stroke-miterlimit="4" stroke-linejoin="miter" fill="none" stroke="#cfcfcf" d="M0 0V438"/>
<path transform="matrix(1.2751802,0,0,1.2367789,2337.8172,12.274536)" stroke-width="2" stroke-linecap="butt" stroke-dasharray="3,3" stroke-miterlimit="4" stroke-linejoin="miter" fill="none" stroke="#cfcfcf" d="M0 0V438"/>
<path transform="matrix(1.2751802,0,0,1.2367789,2493.134,12.274658)" stroke-width="2" stroke-linecap="butt" stroke-dasharray="3,3" stroke-miterlimit="4" stroke-linejoin="miter" fill="none" stroke="#cfcfcf" d="M0 0V438"/>
<path transform="matrix(1.2751802,0,0,1.2367789,1735.9573,508.84138)" stroke-width="2" stroke-linecap="butt" stroke-dasharray="3,3" stroke-miterlimit="4" stroke-linejoin="miter" fill="none" stroke="#cfcfcf" d="M0 0H609"/>
<path transform="matrix(1.2751802,0,0,1.2367789,1735.9573,373.41407)" stroke-width="2" stroke-linecap="butt" stroke-dasharray="3,3" stroke-miterlimit="4" stroke-linejoin="miter" fill="none" stroke="#cfcfcf" d="M0 0H609"/>
<path transform="matrix(1.2751802,0,0,1.2367789,1735.9573,237.98682)" stroke-width="2" stroke-linecap="butt" stroke-dasharray="3,3" stroke-miterlimit="4" stroke-linejoin="miter" fill="none" stroke="#cfcfcf" d="M0 0H609"/>
<path transform="matrix(1.2751802,0,0,1.2367789,1735.9573,102.55945)" stroke-width="2" stroke-linecap="butt" stroke-dasharray="3,3" stroke-miterlimit="4" stroke-linejoin="miter" fill="none" stroke="#cfcfcf" d="M0 0H609"/>
<path transform="matrix(1.2751802,0,0,1.2367789,-195.79376,1278.9398)" d="M1530.114-887.945H1591.014V-586.164H1530.114Z" fill="#5574b7" fill-opacity=".898041"/>
<path transform="matrix(1.2751802,0,0,1.2367789,-195.79376,1278.9401)" d="M1682.365-924.595H1743.265V-586.16397H1682.365Z" fill="#5574b7" fill-opacity=".898041"/>
<path transform="matrix(1.2751802,0,0,1.2367789,-195.79376,1278.9403)" d="M1834.605-951.386H1895.504V-586.166H1834.605Z" fill="#5574b7" fill-opacity=".898041"/>
<path transform="matrix(1.2751802,0,0,1.2367789,-195.79376,1278.9406)" d="M1986.864-988.905H2047.764V-586.166H1986.864Z" fill="#5574b7" fill-opacity=".898041"/>
<path transform="matrix(1.2751802,0,0,1.2367789,-195.79376,1278.9408)" d="M1591.015-806.695H1651.915V-586.16506H1591.015Z" fill="#ecceb2" fill-opacity=".898041"/>
<path transform="matrix(1.2751802,0,0,1.2367789,-195.79376,1278.941)" d="M1743.265-789.615H1804.155V-586.165H1743.265Z" fill="#ecceb2" fill-opacity=".898041"/>
<path transform="matrix(1.2751802,0,0,1.2367789,-195.79376,1278.9413)" d="M1895.504-721.285H1956.4141V-586.16598H1895.504Z" fill="#ecceb2" fill-opacity=".898041"/>
<path transform="matrix(1.2751802,0,0,1.2367789,-195.79376,1278.9415)" d="M2047.765-702.455H2108.665V-586.166H2047.765Z" fill="#ecceb2" fill-opacity=".898041"/>
<path transform="matrix(1.2751802,0,0,1.2367789,1733.407,555.21987)" stroke-width="2" stroke-linecap="butt" stroke-miterlimit="4" stroke-linejoin="miter" fill="none" stroke="#3c3c3c" d="M0 0H613M0-440H613"/>
<path transform="matrix(1.2751802,0,0,1.2367789,1734.6821,12.27417)" stroke-width="2" stroke-linecap="butt" stroke-miterlimit="4" stroke-linejoin="miter" fill="none" stroke="#3c3c3c" d="M0 0V438M611 0V438"/>
<g clip-path="url(#clip_2)">
<text fill="#2a3f5f" xml:space="preserve" transform="matrix(1.0154055 0 -0 .98482826 -195.79376 1278.9398)" font-size="25.116663" font-family="OpenSans"><tspan y="-773.1721" x="1866.1857 1879.9999">15</tspan></text>
</g>
<g clip-path="url(#clip_3)">
<text fill="#2a3f5f" xml:space="preserve" transform="matrix(1.0154055 0 -0 .98482826 -195.79376 1278.9398)" font-size="25.116663" font-family="OpenSans"><tspan y="-910.6858" x="1866.1857 1879.9999">30</tspan></text>
</g>
<g clip-path="url(#clip_4)">
<text fill="#2a3f5f" xml:space="preserve" transform="matrix(1.0154055 0 -0 .98482826 -195.79376 1278.9398)" font-size="25.116663" font-family="OpenSans"><tspan y="-1048.1992" x="1866.1858 1880">45</tspan></text>
</g>
<g clip-path="url(#clip_5)">
<text fill="#2a3f5f" xml:space="preserve" transform="matrix(1.0154055 0 -0 .98482826 -195.79376 1278.9398)" font-size="25.116663" font-family="OpenSans"><tspan y="-1185.7129" x="1866.1858 1880">60</tspan></text>
</g>
<path transform="matrix(1.3275294,0,0,1.326146,-195.79375,1278.9397)" d="M189.742-960.523H839.742V-510.523H189.742Z" fill="#ffffff"/>
<path transform="matrix(1.3275294,0,0,1.326146,132.5595,14.429077)" stroke-width="1.5" stroke-linecap="butt" stroke-dasharray="3,3" stroke-miterlimit="4" stroke-linejoin="miter" fill="none" stroke="#cfcfcf" d="M0 0V406"/>
<path transform="matrix(1.3275294,0,0,1.326146,271.8306,14.429077)" stroke-width="1.5" stroke-linecap="butt" stroke-dasharray="3,3" stroke-miterlimit="4" stroke-linejoin="miter" fill="none" stroke="#cfcfcf" d="M0 0V406"/>
<path transform="matrix(1.3275294,0,0,1.326146,411.08827,14.429077)" stroke-width="1.5" stroke-linecap="butt" stroke-dasharray="3,3" stroke-miterlimit="4" stroke-linejoin="miter" fill="none" stroke="#cfcfcf" d="M0 0V406"/>
<path transform="matrix(1.3275294,0,0,1.326146,550.34609,14.429077)" stroke-width="1.5" stroke-linecap="butt" stroke-dasharray="3,3" stroke-miterlimit="4" stroke-linejoin="miter" fill="none" stroke="#cfcfcf" d="M0 0V406"/>
<path transform="matrix(1.3275294,0,0,1.326146,689.60379,14.429077)" stroke-width="1.5" stroke-linecap="butt" stroke-dasharray="3,3" stroke-miterlimit="4" stroke-linejoin="miter" fill="none" stroke="#cfcfcf" d="M0 0V406"/>
<path transform="matrix(1.3275294,0,0,1.326146,828.8616,14.429077)" stroke-width="1.5" stroke-linecap="butt" stroke-dasharray="3,3" stroke-miterlimit="4" stroke-linejoin="miter" fill="none" stroke="#cfcfcf" d="M0 0V406"/>
<path transform="matrix(1.3275294,0,0,1.326146,101.22931,481.05995)" stroke-width="1.5" stroke-linecap="butt" stroke-dasharray="3,3" stroke-miterlimit="4" stroke-linejoin="miter" fill="none" stroke="#cfcfcf" d="M0 0H574.34"/>
<path transform="matrix(1.3275294,0,0,1.326146,101.22931,373.37715)" stroke-width="1.5" stroke-linecap="butt" stroke-dasharray="3,3" stroke-miterlimit="4" stroke-linejoin="miter" fill="none" stroke="#cfcfcf" d="M0 0H574.34"/>
<path transform="matrix(1.3275294,0,0,1.326146,101.22931,265.6941)" stroke-width="1.5" stroke-linecap="butt" stroke-dasharray="3,3" stroke-miterlimit="4" stroke-linejoin="miter" fill="none" stroke="#cfcfcf" d="M0 0H574.34"/>
<path transform="matrix(1.3275294,0,0,1.326146,101.22931,158.01099)" stroke-width="1.5" stroke-linecap="butt" stroke-dasharray="3,3" stroke-miterlimit="4" stroke-linejoin="miter" fill="none" stroke="#cfcfcf" d="M0 0H574.34"/>
<path transform="matrix(1.3275294,0,0,1.326146,101.22931,50.328004)" stroke-width="1.5" stroke-linecap="butt" stroke-dasharray="3,3" stroke-miterlimit="4" stroke-linejoin="miter" fill="none" stroke="#cfcfcf" d="M0 0H574.34"/>
<path transform="matrix(1.3275294,0,0,1.326146,132.55937,511.20338)" stroke-width="4" stroke-linecap="butt" stroke-miterlimit="2" stroke-linejoin="miter" fill="none" stroke="#4c6cb3" stroke-opacity=".898041" d="M0 0 26.23 3.52 52.45-6.49 78.68-14.34 104.91-12.99 131.13-36.81 157.36-57.92 183.58-78.76 209.81-84.72 236.03-105.29 262.26-120.99 288.48-124.23 314.71-137.5 340.94-148.05 367.16-146.43 393.39-156.17 419.61-146.97 445.84-140.74 472.06-142.91 498.29-133.44 524.51-131"/>
<g clip-path="url(#clip_6)">
<path transform="matrix(1.3275294,0,0,1.326146,140.52466,511.20338)" d="M0 0C0 3.314-2.686 6-6 6-9.314 6-12 3.314-12 0-12-3.314-9.314-6-6-6-2.686-6 0-3.314 0 0" fill="#4c6cb3"/>
<path transform="matrix(1.3275294,0,0,1.326146,175.34561,515.8716)" d="M0 0C0 3.314-2.686 6-6 6-9.314 6-12 3.314-12 0-12-3.314-9.314-6-6-6-2.686-6 0-3.314 0 0" fill="#4c6cb3"/>
<path transform="matrix(1.3275294,0,0,1.326146,210.15338,502.59669)" d="M0 0C0 3.314-2.686 6-6 6-9.314 6-12 3.314-12 0-12-3.314-9.314-6-6-6-2.686-6 0-3.314 0 0" fill="#4c6cb3"/>
<path transform="matrix(1.3275294,0,0,1.326146,244.97446,492.18666)" d="M0 0C0 3.314-2.686 6-6 6-9.314 6-12 3.314-12 0-12-3.314-9.314-6-6-6-2.686-6 0-3.314 0 0" fill="#4c6cb3"/>
<path transform="matrix(1.3275294,0,0,1.326146,279.79563,493.977)" d="M0 0C0 3.314-2.686 6-6 6-9.314 6-12 3.314-12 0-12-3.314-9.314-6-6-6-2.686-6 0-3.314 0 0" fill="#4c6cb3"/>
<path transform="matrix(1.3275294,0,0,1.326146,314.60325,462.38819)" d="M0 0C0 3.314-2.686 6-6 6-9.314 6-12 3.314-12 0-12-3.314-9.314-6-6-6-2.686-6 0-3.314 0 0" fill="#4c6cb3"/>
<path transform="matrix(1.3275294,0,0,1.326146,349.42433,434.39338)" d="M0 0C0 3.314-2.686 6-6 6-9.314 6-12 3.314-12 0-12-3.314-9.314-6-6-6-2.686-6 0-3.314 0 0" fill="#4c6cb3"/>
<path transform="matrix(1.3275294,0,0,1.326146,384.23213,406.7566)" d="M0 0C0 3.314-2.686 6-6 6-9.314 6-12 3.314-12 0-12-3.314-9.314-6-6-6-2.686-6 0-3.314 0 0" fill="#4c6cb3"/>
<path transform="matrix(1.3275294,0,0,1.326146,419.0531,398.85285)" d="M0 0C0 3.314-2.686 6-6 6-9.314 6-12 3.314-12 0-12-3.314-9.314-6-6-6-2.686-6 0-3.314 0 0" fill="#4c6cb3"/>
<path transform="matrix(1.3275294,0,0,1.326146,453.86085,371.57398)" d="M0 0C0 3.314-2.686 6-6 6-9.314 6-12 3.314-12 0-12-3.314-9.314-6-6-6-2.686-6 0-3.314 0 0" fill="#4c6cb3"/>
<path transform="matrix(1.3275294,0,0,1.326146,488.68208,350.7533)" d="M0 0C0 3.314-2.686 6-6 6-9.314 6-12 3.314-12 0-12-3.314-9.314-6-6-6-2.686-6 0-3.314 0 0" fill="#4c6cb3"/>
<path transform="matrix(1.3275294,0,0,1.326146,523.4896,346.45674)" d="M0 0C0 3.314-2.686 6-6 6-9.314 6-12 3.314-12 0-12-3.314-9.314-6-6-6-2.686-6 0-3.314 0 0" fill="#4c6cb3"/>
<path transform="matrix(1.3275294,0,0,1.326146,558.3107,328.85896)" d="M0 0C0 3.314-2.686 6-6 6-9.314 6-12 3.314-12 0-12-3.314-9.314-6-6-6-2.686-6 0-3.314 0 0" fill="#4c6cb3"/>
<path transform="matrix(1.3275294,0,0,1.326146,593.1319,314.86817)" d="M0 0C0 3.314-2.686 6-6 6-9.314 6-12 3.314-12 0-12-3.314-9.314-6-6-6-2.686-6 0-3.314 0 0" fill="#4c6cb3"/>
<path transform="matrix(1.3275294,0,0,1.326146,627.93948,317.01667)" d="M0 0C0 3.314-2.686 6-6 6-9.314 6-12 3.314-12 0-12-3.314-9.314-6-6-6-2.686-6 0-3.314 0 0" fill="#4c6cb3"/>
<path transform="matrix(1.3275294,0,0,1.326146,662.7605,304.09999)" d="M0 0C0 3.314-2.686 6-6 6-9.314 6-12 3.314-12 0-12-3.314-9.314-6-6-6-2.686-6 0-3.314 0 0" fill="#4c6cb3"/>
<path transform="matrix(1.3275294,0,0,1.326146,697.5682,316.30073)" d="M0 0C0 3.314-2.686 6-6 6-9.314 6-12 3.314-12 0-12-3.314-9.314-6-6-6-2.686-6 0-3.314 0 0" fill="#4c6cb3"/>
<path transform="matrix(1.3275294,0,0,1.326146,732.38919,324.56245)" d="M0 0C0 3.314-2.686 6-6 6-9.314 6-12 3.314-12 0-12-3.314-9.314-6-6-6-2.686-6 0-3.314 0 0" fill="#4c6cb3"/>
<path transform="matrix(1.3275294,0,0,1.326146,767.1971,321.68513)" d="M0 0C0 3.314-2.686 6-6 6-9.314 6-12 3.314-12 0-12-3.314-9.314-6-6-6-2.686-6 0-3.314 0 0" fill="#4c6cb3"/>
<path transform="matrix(1.3275294,0,0,1.326146,802.01797,334.2437)" d="M0 0C0 3.314-2.686 6-6 6-9.314 6-12 3.314-12 0-12-3.314-9.314-6-6-6-2.686-6 0-3.314 0 0" fill="#4c6cb3"/>
<path transform="matrix(1.3275294,0,0,1.326146,836.82577,337.4796)" d="M0 0C0 3.314-2.686 6-6 6-9.314 6-12 3.314-12 0-12-3.314-9.314-6-6-6-2.686-6 0-3.314 0 0" fill="#4c6cb3"/>
<path transform="matrix(1.3275294,0,0,1.326146,132.55814,479.6159)" stroke-width="4" stroke-linecap="butt" stroke-miterlimit="2" stroke-linejoin="miter" fill="none" stroke="#5c7866" stroke-opacity=".898041" d="M0 0 26.23-3.24 52.45-1.08 78.68-5.14 104.91-18.4 131.13-46.55 157.36-51.96 183.58-62.25 209.81-85.8 236.03-96.35 262.26-100.41 288.48-114.22 314.71-115.03 340.94-107.18 367.16-116.38 393.39-117.47 419.61-113.41 445.84-101.77 472.06-104.47 498.29-86.07 524.51-78.49"/>
<path transform="matrix(1.3275294,0,0,1.326146,142.91297,479.61604)" d="M0 0-7.8 7.8-15.6 0-7.8-7.8Z" fill="#5c7866"/>
<path transform="matrix(1.3275294,0,0,1.326146,177.73389,475.31935)" d="M0 0-7.8 7.8-15.6 0-7.8-7.8Z" fill="#5c7866"/>
<path transform="matrix(1.3275294,0,0,1.326146,212.54166,478.18385)" d="M0 0-7.8 7.8-15.6 0-7.8-7.8Z" fill="#5c7866"/>
<path transform="matrix(1.3275294,0,0,1.326146,247.36273,472.79975)" d="M0 0-7.8 7.8-15.6 0-7.8-7.8Z" fill="#5c7866"/>
<path transform="matrix(1.3275294,0,0,1.326146,282.1838,455.21504)" d="M0 0-7.8 7.8-15.6 0-7.8-7.8Z" fill="#5c7866"/>
<path transform="matrix(1.3275294,0,0,1.326146,316.99159,417.8838)" d="M0 0-7.8 7.8-15.6 0-7.8-7.8Z" fill="#5c7866"/>
<path transform="matrix(1.3275294,0,0,1.326146,351.8126,410.70967)" d="M0 0-7.8 7.8-15.6 0-7.8-7.8Z" fill="#5c7866"/>
<path transform="matrix(1.3275294,0,0,1.326146,386.62043,397.06373)" d="M0 0-7.8 7.8-15.6 0-7.8-7.8Z" fill="#5c7866"/>
<path transform="matrix(1.3275294,0,0,1.326146,421.44148,365.833)" d="M0 0-7.8 7.8-15.6 0-7.8-7.8Z" fill="#5c7866"/>
<path transform="matrix(1.3275294,0,0,1.326146,456.2492,351.8421)" d="M0 0-7.8 7.8-15.6 0-7.8-7.8Z" fill="#5c7866"/>
<path transform="matrix(1.3275294,0,0,1.326146,491.07038,346.45808)" d="M0 0-7.8 7.8-15.6 0-7.8-7.8Z" fill="#5c7866"/>
<path transform="matrix(1.3275294,0,0,1.326146,525.87808,328.1443)" d="M0 0-7.8 7.8-15.6 0-7.8-7.8Z" fill="#5c7866"/>
<path transform="matrix(1.3275294,0,0,1.326146,560.69906,327.07026)" d="M0 0-7.8 7.8-15.6 0-7.8-7.8Z" fill="#5c7866"/>
<path transform="matrix(1.3275294,0,0,1.326146,595.5201,337.48048)" d="M0 0-7.8 7.8-15.6 0-7.8-7.8Z" fill="#5c7866"/>
<path transform="matrix(1.3275294,0,0,1.326146,630.3278,325.2799)" d="M0 0-7.8 7.8-15.6 0-7.8-7.8Z" fill="#5c7866"/>
<path transform="matrix(1.3275294,0,0,1.326146,665.1488,323.8344)" d="M0 0-7.8 7.8-15.6 0-7.8-7.8Z" fill="#5c7866"/>
<path transform="matrix(1.3275294,0,0,1.326146,699.95657,329.21858)" d="M0 0-7.8 7.8-15.6 0-7.8-7.8Z" fill="#5c7866"/>
<path transform="matrix(1.3275294,0,0,1.326146,734.7775,344.65534)" d="M0 0-7.8 7.8-15.6 0-7.8-7.8Z" fill="#5c7866"/>
<path transform="matrix(1.3275294,0,0,1.326146,769.5852,341.0747)" d="M0 0-7.8 7.8-15.6 0-7.8-7.8Z" fill="#5c7866"/>
<path transform="matrix(1.3275294,0,0,1.326146,804.4063,365.47578)" d="M0 0-7.8 7.8-15.6 0-7.8-7.8Z" fill="#5c7866"/>
<path transform="matrix(1.3275294,0,0,1.326146,839.21408,375.52809)" d="M0 0-7.8 7.8-15.6 0-7.8-7.8Z" fill="#5c7866"/>
<path transform="matrix(1.3275294,0,0,1.326146,132.55692,280.76197)" stroke-width="4" stroke-linecap="butt" stroke-miterlimit="2" stroke-linejoin="miter" fill="none" stroke="#6f4b3e" stroke-opacity=".898041" d="M0 0 26.23 1.9 52.45-10.82 78.68-20.02 104.91-23.27 131.13-48.44 157.36-54.4 183.58-81.74 209.81-90.4 236.03-93.1 262.26-97.16 288.48-110.16 314.71-93.92 340.94-86.07 367.16-75.24 393.39-75.78 419.61-60.62 445.84-64.41 472.06-49.53 498.29-39.24 524.51-44.66"/>
<path transform="matrix(1.3275294,0,0,1.326146,-195.79624,1278.9426)" d="M252.342-747.693H242.342V-757.693H252.342Z" fill="#6f4b3e"/>
<path transform="matrix(1.3275294,0,0,1.326146,-195.79627,1278.9428)" d="M278.572-745.793H268.572V-755.793H278.572Z" fill="#6f4b3e"/>
<path transform="matrix(1.3275294,0,0,1.326146,-195.79633,1278.9428)" d="M304.792-758.513H294.792V-768.513H304.792Z" fill="#6f4b3e"/>
<path transform="matrix(1.3275294,0,0,1.326146,-195.79636,1278.9428)" d="M331.022-767.713H321.022V-777.713H331.022Z" fill="#6f4b3e"/>
<path transform="matrix(1.3275294,0,0,1.326146,-195.79639,1278.9428)" d="M357.252-770.963H347.252V-780.963H357.252Z" fill="#6f4b3e"/>
<path transform="matrix(1.3275294,0,0,1.326146,-195.79645,1278.9428)" d="M383.472-796.133H373.472V-806.133H383.472Z" fill="#6f4b3e"/>
<path transform="matrix(1.3275294,0,0,1.326146,-195.79648,1278.9428)" d="M409.702-802.093H399.702V-812.093H409.702Z" fill="#6f4b3e"/>
<path transform="matrix(1.3275294,0,0,1.326146,-195.79651,1278.9428)" d="M435.922-829.433H425.922V-839.433H435.922Z" fill="#6f4b3e"/>
<path transform="matrix(1.3275294,0,0,1.326146,-195.79657,1278.9429)" d="M462.152-838.093H452.152V-848.093H462.152Z" fill="#6f4b3e"/>
<path transform="matrix(1.3275294,0,0,1.326146,-195.79663,1278.9429)" d="M488.371-840.793H478.371V-850.793H488.371Z" fill="#6f4b3e"/>
<path transform="matrix(1.3275294,0,0,1.326146,-195.79669,1278.9429)" d="M514.602-844.853H504.602V-854.853H514.602Z" fill="#6f4b3e"/>
<path transform="matrix(1.3275294,0,0,1.326146,-195.79676,1278.9429)" d="M540.822-857.853H530.822V-867.853H540.822Z" fill="#6f4b3e"/>
<path transform="matrix(1.3275294,0,0,1.326146,-195.79682,1278.9429)" d="M567.052-841.613H557.052V-851.613H567.052Z" fill="#6f4b3e"/>
<path transform="matrix(1.3275294,0,0,1.326146,-195.79688,1278.9429)" d="M593.282-833.763H583.282V-843.763H593.282Z" fill="#6f4b3e"/>
<path transform="matrix(1.3275294,0,0,1.326146,-195.797,1278.9429)" d="M619.502-822.933H609.502V-832.933H619.502Z" fill="#6f4b3e"/>
<path transform="matrix(1.3275294,0,0,1.326146,-195.79706,1278.9429)" d="M645.732-823.473H635.732V-833.473H645.732Z" fill="#6f4b3e"/>
<path transform="matrix(1.3275294,0,0,1.326146,-195.79718,1278.9429)" d="M671.952-808.313H661.952V-818.313H671.952Z" fill="#6f4b3e"/>
<path transform="matrix(1.3275294,0,0,1.326146,-195.7973,1278.9429)" d="M698.182-812.103H688.182V-822.103H698.182Z" fill="#6f4b3e"/>
<path transform="matrix(1.3275294,0,0,1.326146,-195.79737,1278.9429)" d="M724.402-797.223H714.402V-807.223H724.402Z" fill="#6f4b3e"/>
<path transform="matrix(1.3275294,0,0,1.326146,-195.79743,1278.9429)" d="M750.632-786.933H740.632V-796.933H750.632Z" fill="#6f4b3e"/>
<path transform="matrix(1.3275294,0,0,1.326146,-195.79743,1278.9429)" d="M776.852-792.353H766.852V-802.353H776.852Z" fill="#6f4b3e"/>
<path transform="matrix(1.3275294,0,0,1.326146,132.5557,203.95178)" stroke-width="4" stroke-linecap="butt" stroke-miterlimit="2" stroke-linejoin="miter" fill="none" stroke="#824880" stroke-opacity=".898041" d="M0 0 26.23-3.52 52.45-4.33 78.68-2.98 104.91-16.24 157.36-44.66 183.58-71.45 209.81-74.16 236.03-102.04 262.26-108.81 288.48-122.07 314.71-117.74 340.94-126.13 367.16-110.7 393.39-113.95 419.61-105.02 445.84-101.23 472.06-84.72 498.29-82.28 524.51-63.88"/>
<path transform="matrix(1.3275294,0,0,1.326146,121.829349,199.3103)" d="M0 0H16.16L8.08 10.5Z" fill="#824880"/>
<path transform="matrix(1.3275294,0,0,1.326146,156.65027,194.64234)" d="M0 0H16.16L8.08 10.5Z" fill="#824880"/>
<path transform="matrix(1.3275294,0,0,1.326146,191.45804,193.568)" d="M0 0H16.16L8.08 10.5Z" fill="#824880"/>
<path transform="matrix(1.3275294,0,0,1.326146,226.27924,195.3584)" d="M0 0H16.16L8.08 10.5Z" fill="#824880"/>
<path transform="matrix(1.3275294,0,0,1.326146,261.1003,177.77368)" d="M0 0H16.16L8.08 10.5Z" fill="#824880"/>
<path transform="matrix(1.3275294,0,0,1.326146,295.90797,158.39868)" d="M0 0H16.16L8.08 10.5Z" fill="#824880"/>
<path transform="matrix(1.3275294,0,0,1.326146,330.72917,140.0846)" d="M0 0H16.16L8.08 10.5Z" fill="#824880"/>
<path transform="matrix(1.3275294,0,0,1.326146,365.5368,104.55725)" d="M0 0H16.16L8.08 10.5Z" fill="#824880"/>
<path transform="matrix(1.3275294,0,0,1.326146,400.35786,100.9635)" d="M0 0H16.16L8.08 10.5Z" fill="#824880"/>
<path transform="matrix(1.3275294,0,0,1.326146,435.1656,63.99048)" d="M0 0H16.16L8.08 10.5Z" fill="#824880"/>
<path transform="matrix(1.3275294,0,0,1.326146,469.98677,55.01245)" d="M0 0H16.16L8.08 10.5Z" fill="#824880"/>
<path transform="matrix(1.3275294,0,0,1.326146,504.79444,37.427736)" d="M0 0H16.16L8.08 10.5Z" fill="#824880"/>
<path transform="matrix(1.3275294,0,0,1.326146,539.6154,43.1698)" d="M0 0H16.16L8.08 10.5Z" fill="#824880"/>
<path transform="matrix(1.3275294,0,0,1.326146,574.43649,32.04358)" d="M0 0H16.16L8.08 10.5Z" fill="#824880"/>
<path transform="matrix(1.3275294,0,0,1.326146,609.2442,52.50598)" d="M0 0H16.16L8.08 10.5Z" fill="#824880"/>
<path transform="matrix(1.3275294,0,0,1.326146,644.0652,48.196168)" d="M0 0H16.16L8.08 10.5Z" fill="#824880"/>
<path transform="matrix(1.3275294,0,0,1.326146,678.8729,60.038698)" d="M0 0H16.16L8.08 10.5Z" fill="#824880"/>
<path transform="matrix(1.3275294,0,0,1.326146,713.6939,65.064579)" d="M0 0H16.16L8.08 10.5Z" fill="#824880"/>
<path transform="matrix(1.3275294,0,0,1.326146,748.5016,86.95947)" d="M0 0H16.16L8.08 10.5Z" fill="#824880"/>
<path transform="matrix(1.3275294,0,0,1.326146,783.3227,90.195438)" d="M0 0H16.16L8.08 10.5Z" fill="#824880"/>
<path transform="matrix(1.3275294,0,0,1.326146,818.1305,114.596439)" d="M0 0H16.16L8.08 10.5Z" fill="#824880"/>
</g>
<path transform="matrix(1.3275294,0,0,1.326146,98.57463,554.17056)" stroke-width="2" stroke-linecap="butt" stroke-miterlimit="4" stroke-linejoin="miter" fill="none" stroke="#3c3c3c" d="M0 0H578.34M0-408H578.34"/>
<path transform="matrix(1.3275294,0,0,1.326146,99.902149,14.429077)" stroke-width="2" stroke-linecap="butt" stroke-miterlimit="4" stroke-linejoin="miter" fill="none" stroke="#3c3c3c" d="M0 0V406M576.34 0V406"/>
<g clip-path="url(#clip_7)">
<text fill="#2a3f5f" xml:space="preserve" transform="matrix(1.000522 0 -0 .99947819 -195.79376 1278.9398)" font-size="26.536747" font-family="OpenSans"><tspan y="-691.9769" x="309.67225">0</tspan></text>
</g>
<g clip-path="url(#clip_8)">
<text fill="#2a3f5f" xml:space="preserve" transform="matrix(1.000522 0 -0 .99947819 -195.79376 1278.9398)" font-size="26.536747" font-family="OpenSans"><tspan y="-691.9769" x="324.84547">%</tspan></text>
</g>
<g clip-path="url(#clip_9)">
<text fill="#2a3f5f" xml:space="preserve" transform="matrix(1.000522 0 -0 .99947819 -195.79376 1278.9398)" font-size="26.536747" font-family="OpenSans"><tspan y="-691.9769" x="441.28425 455.87947">20</tspan></text>
</g>
<g clip-path="url(#clip_10)">
<text fill="#2a3f5f" xml:space="preserve" transform="matrix(1.000522 0 -0 .99947819 -195.79376 1278.9398)" font-size="26.536747" font-family="OpenSans"><tspan y="-691.9769" x="471.6304">%</tspan></text>
</g>
<g clip-path="url(#clip_11)">
<text fill="#2a3f5f" xml:space="preserve" transform="matrix(1.000522 0 -0 .99947819 -195.79376 1278.9398)" font-size="26.536747" font-family="OpenSans"><tspan y="-691.9769" x="580.4693 595.0645">40</tspan></text>
</g>
<g clip-path="url(#clip_12)">
<text fill="#2a3f5f" xml:space="preserve" transform="matrix(1.000522 0 -0 .99947819 -195.79376 1278.9398)" font-size="26.536747" font-family="OpenSans"><tspan y="-691.9769" x="610.81558">%</tspan></text>
</g>
<g clip-path="url(#clip_13)">
<text fill="#2a3f5f" xml:space="preserve" transform="matrix(1.000522 0 -0 .99947819 -195.79376 1278.9398)" font-size="26.536747" font-family="OpenSans"><tspan y="-691.9769" x="719.65457 734.24978">60</tspan></text>
</g>
<g clip-path="url(#clip_14)">
<text fill="#2a3f5f" xml:space="preserve" transform="matrix(1.000522 0 -0 .99947819 -195.79376 1278.9398)" font-size="26.536747" font-family="OpenSans"><tspan y="-691.9769" x="750.0008">%</tspan></text>
</g>
<g clip-path="url(#clip_15)">
<text fill="#2a3f5f" xml:space="preserve" transform="matrix(1.000522 0 -0 .99947819 -195.79376 1278.9398)" font-size="26.536747" font-family="OpenSans"><tspan y="-691.9769" x="858.8398 873.435">80</tspan></text>
</g>
<g clip-path="url(#clip_16)">
<text fill="#2a3f5f" xml:space="preserve" transform="matrix(1.000522 0 -0 .99947819 -195.79376 1278.9398)" font-size="26.536747" font-family="OpenSans"><tspan y="-691.9769" x="889.18606">%</tspan></text>
</g>
<g clip-path="url(#clip_17)">
<text fill="#2a3f5f" xml:space="preserve" transform="matrix(1.000522 0 -0 .99947819 -195.79376 1278.9398)" font-size="26.536747" font-family="OpenSans"><tspan y="-691.9769" x="990.43838 1005.0336 1020.9556">100</tspan></text>
</g>
<g clip-path="url(#clip_18)">
<text fill="#2a3f5f" xml:space="preserve" transform="matrix(1.000522 0 -0 .99947819 -195.79376 1278.9398)" font-size="26.536747" font-family="OpenSans"><tspan y="-691.9769" x="1035.9578">%</tspan></text>
</g>
<g clip-path="url(#clip_19)">
<text fill="#2a3f5f" xml:space="preserve" transform="matrix(1.000522 0 -0 .99947819 -195.79376 1278.9398)" font-size="26.536747" font-family="OpenSans"><tspan y="-789.00857" x="258.5613 273.15657">45</tspan></text>
</g>
<g clip-path="url(#clip_20)">
<text fill="#2a3f5f" xml:space="preserve" transform="matrix(1.000522 0 -0 .99947819 -195.79376 1278.9398)" font-size="26.536747" font-family="OpenSans"><tspan y="-896.74789" x="258.5613 273.15657">48</tspan></text>
</g>
<g clip-path="url(#clip_21)">
<text fill="#2a3f5f" xml:space="preserve" transform="matrix(1.000522 0 -0 .99947819 -195.79376 1278.9398)" font-size="26.536747" font-family="OpenSans"><tspan y="-1004.4873" x="258.5613 273.15657">51</tspan></text>
</g>
<g clip-path="url(#clip_22)">
<text fill="#2a3f5f" xml:space="preserve" transform="matrix(1.000522 0 -0 .99947819 -195.79376 1278.9398)" font-size="26.536747" font-family="OpenSans"><tspan y="-1112.2265" x="258.5613 273.15657">54</tspan></text>
</g>
<g clip-path="url(#clip_23)">
<text fill="#2a3f5f" xml:space="preserve" transform="matrix(1.000522 0 -0 .99947819 -195.79376 1278.9398)" font-size="26.536747" font-family="OpenSans"><tspan y="-1219.9658" x="258.5613 273.15657">57</tspan></text>
</g>
<text xml:space="preserve" transform="matrix(0 -1 1 0 -195.79376 1278.9398)" font-size="42" font-family="TimesNewRomanPSMT"><tspan y="1868.5586" x="806.7703 830.1643 848.7661 862.7941 881.3917 899.9935 920.9935 932.6318 944.27 965.27 986.27 996.7112 1022.38998 1036.418 1050.4459 1071.4459 1085.4739 1095.8059 1109.8339 1144.8618">Perception Error (%)</tspan></text>
<text fill="#ffffff" xml:space="preserve" transform="matrix(1 0 -0 1 -195.79376 1278.9398)" font-size="36" font-family="TimesNewRomanPS" font-weight="bold"><tspan y="-978.1141" x="1282.6188 1304.5787 1320.5376 1335.8988 1351.8577 1367.8201 1387.8577 1399.8457 1409.8034 1427.8034">Perception</tspan></text>
<text fill="#ffffff" xml:space="preserve" transform="matrix(1 0 -0 1 -195.79376 1278.9398)" font-size="36" font-family="TimesNewRomanPS" font-weight="bold"><tspan y="-934.91409" x="1294.7507 1306.7388 1324.7388 1342.7388 1351.7388 1369.7388 1387.7388 1423.7388">(55.23%)</tspan></text>
<text fill="#c1e5f5" xml:space="preserve" transform="matrix(1 0 -0 1 -195.79376 1278.9398)" font-size="36" font-family="TimesNewRomanPS" font-weight="bold"><tspan y="-1038.9541" x="1502.6868 1526.6987 1544.6987 1562.6987 1572.6564 1588.6188 1606.6188">Logical</tspan></text>
<text fill="#c1e5f5" xml:space="preserve" transform="matrix(1 0 -0 1 -195.79376 1278.9398)" font-size="36" font-family="TimesNewRomanPS" font-weight="bold"><tspan y="-995.7541" x="1489.1148 1501.1028 1519.1028 1537.1028 1546.1028 1564.1028 1582.1028 1618.1028">(33.05%)</tspan></text>
<text fill="#fbe3d6" xml:space="preserve" transform="matrix(1 0 -0 1 -195.79376 1278.9398)" font-size="36" font-family="TimesNewRomanPS" font-weight="bold"><tspan y="-890.7061" x="1472.8428 1500.8041 1520.8417 1538.8417 1564.884 1574.8417 1590.8041 1610.8417 1628.8417">Knowledge</tspan></text>
<text fill="#fbe3d6" xml:space="preserve" transform="matrix(1 0 -0 1 -195.79376 1278.9398)" font-size="36" font-family="TimesNewRomanPS" font-weight="bold"><tspan y="-847.5061" x="1489.2948 1501.2828 1517.2453 1535.2453 1544.2453 1562.2453 1580.2453 1616.2453">(11.72%)</tspan></text>
<text fill="#7f7f7f" xml:space="preserve" transform="matrix(1 0 -0 1 -195.79376 1278.9398)" font-size="36" font-family="TimesNewRomanPS" font-weight="bold"><tspan y="-755.0581" x="1144.4148 1162.4148 1180.4148 1189.4148 1207.4148 1225.4148">32.35%</tspan></text>
<text fill="#7f7f7f" xml:space="preserve" transform="matrix(1 0 -0 1 -195.79376 1278.9398)" font-size="36" font-family="TimesNewRomanPS" font-weight="bold"><tspan y="-1244.6581" x="1535.0868 1553.0868 1562.0868 1580.0868 1598.0868">8.41%</tspan></text>
<text fill="#7f7f7f" xml:space="preserve" transform="matrix(1 0 -0 1 -195.79376 1278.9398)" font-size="36" font-family="TimesNewRomanPS" font-weight="bold"><tspan y="-754.6981" x="1674.8748 1692.8748 1701.8748 1719.8748 1737.8748">3.78%</tspan></text>
<text xml:space="preserve" transform="matrix(1 0 -0 1 -195.79376 1278.9398)" font-size="45" font-family="TimesNewRomanPSMT"><tspan y="-629.7546" x="1186.0907 1201.0757 1231.0907 1246.0757 1257.3707 1284.8657 1299.8507 1314.8357 1337.3987 1352.3837 1363.5437 1393.5587 1413.4757 1425.9588 1445.8757 1468.4387 1490.9972 1505.9822 1528.5452 1539.8402 1572.3617 1584.8402 1602.3452 1614.8283 1629.8132 1642.2918 1664.8547 1687.4132 1699.8917 1712.3748 1734.9332">(B) Error Category Distribution</tspan></text>
<text xml:space="preserve" transform="matrix(0 -1 1 0 -195.79376 1278.9398)" font-size="42" font-family="TimesNewRomanPSMT"><tspan y="232.3986" x="876.7749 907.13668 925.7427 944.3487 965.3487 979.38937 997.99539 1016.6014 1037.6013 1048.1433 1062.1838 1097.2244">Accuracy (%)</tspan></text>
<g clip-path="url(#clip_24)">
<path transform="matrix(1,0,0,-1,379.4522,451.22505)" d="M0 0C0 2.095 1.698 3.793 3.793 3.793H465.211C467.306 3.793 469.004 2.095 469.004 0V-82.126C469.004-84.22 467.306-85.919 465.211-85.919H3.793C1.698-85.919 0-84.22 0-82.126Z" fill="#ffffff" fill-rule="evenodd"/>
<path transform="matrix(1,0,0,-1,379.4522,451.22505)" stroke-width="2.25" stroke-linecap="butt" stroke-miterlimit="8" stroke-linejoin="miter" fill="none" stroke="#cfcfcf" d="M0 0C0 2.095 1.698 3.793 3.793 3.793H465.211C467.306 3.793 469.004 2.095 469.004 0V-82.126C469.004-84.22 467.306-85.919 465.211-85.919H3.793C1.698-85.919 0-84.22 0-82.126Z"/>
</g>
<text xml:space="preserve" transform="matrix(1 0 -0 1 -195.79376 1278.9398)" font-size="30" font-family="TimesNewRomanPSMT"><tspan y="-797.1202" x="669.7509 696.3909 709.71096 717.9909 732.9909 751.3509 764.6709 774.6309 786.27096">MathVerse</tspan></text>
<path transform="matrix(1,0,0,-1,406.24043,472.23255)" stroke-width="6" stroke-linecap="butt" stroke-miterlimit="8" stroke-linejoin="miter" fill="none" stroke="#4c6cb3" stroke-opacity=".901962" d="M0 0H57.6"/>
<g clip-path="url(#clip_25)">
<path transform="matrix(1,0,0,-1,427.81025,471.98255)" d="M0 0C0 4.573 3.707 8.28 8.28 8.28 12.853 8.28 16.56 4.573 16.56 0 16.56-4.573 12.853-8.28 8.28-8.28 3.707-8.28 0-4.573 0 0" fill="#4c6cb3" fill-rule="evenodd"/>
</g>
<text xml:space="preserve" transform="matrix(1 0 -0 1 -195.79376 1278.9398)" font-size="30" font-family="TimesNewRomanPSMT"><tspan y="-797.1202" x="888.5819 906.94198 921.94198 936.94198 945.222 958.542 978.462 986.742 998.382 1006.66207">LogicVista</tspan></text>
<path transform="matrix(1,0,0,-1,624.593,471.98286)" stroke-width="6" stroke-linecap="butt" stroke-miterlimit="8" stroke-linejoin="miter" fill="none" stroke="#5c7866" stroke-opacity=".898041" d="M0 0H57.6"/>
<path transform="matrix(1,0,0,-1,653.06509,461.80024)" d="M0 0 10.182-10.182 0-20.365-10.182-10.182Z" fill="#5c7866" fill-rule="evenodd"/>
<text xml:space="preserve" transform="matrix(1 0 -0 1 -195.79376 1278.9398)" font-size="30" font-family="TimesNewRomanPSMT"><tspan y="-757.2361" x="669.8417 691.56167 704.88168 713.1617 721.4417 741.48178 754.80178 769.80178 783.12179">HallBench</tspan></text>
<path transform="matrix(1,0,0,-1,405.74037,511.97474)" stroke-width="6" stroke-linecap="butt" stroke-miterlimit="8" stroke-linejoin="miter" fill="none" stroke="#6f4b3e" stroke-opacity=".901962" d="M0 0H57.6"/>
<path transform="matrix(1,0,0,-1,-195.79376,1278.9398)" d="M623.524 774.838H638.644V759.718H623.524Z" fill="#6f4b3e" fill-rule="evenodd"/>
<text xml:space="preserve" transform="matrix(1 0 -0 1 -195.79376 1278.9398)" font-size="30" font-family="TimesNewRomanPSMT"><tspan y="-755.506" x="889.3773 916.01736 942.65737 959.3374 967.6174 980.9374">MMStar</tspan></text>
<path transform="matrix(1,0,0,-1,624.593,513.4708)" stroke-width="6" stroke-linecap="butt" stroke-miterlimit="8" stroke-linejoin="miter" fill="none" stroke="#824880" stroke-opacity=".901962" d="M0 0H57.6"/>
<path transform="matrix(1,0,0,-1,662.73416,506.67616)" d="M0 0-10.205-14.4-20.41 0Z" fill="#824880" fill-rule="evenodd"/>
<text xml:space="preserve" transform="matrix(1 0 -0 1 -195.79376 1278.9398)" font-size="45" font-family="TimesNewRomanPSMT"><tspan y="-630.2136" x="337.3972 352.3957 384.9307 399.9292 408.6907 441.2257 461.14723 481.06874 503.61375 518.61227 538.53378 558.4508 580.9958 592.3943 614.9393 632.45779 643.75277 654.9127 684.91427 704.8313 724.7528 742.2713 764.8163 787.36129 799.8398 822.38479 844.92977 856.0897 881.1547 896.15328 918.69827 941.2432 956.2463 976.1633 993.6818">(A) Accuracy vs. Reasoning Progress</tspan></text>
<text xml:space="preserve" transform="matrix(1 0 -0 1 -195.79376 1278.9398)" font-size="36" font-family="TimesNewRomanPSMT"><tspan y="-689.2869" x="1948.3648 1980.4048 1996.3637 2006.325 2024.325 2046.4037 2062.3663 2074.3543 2088.394">MathVerse</tspan></text>
<text xml:space="preserve" transform="matrix(1 0 -0 1 -195.79376 1278.9398)" font-size="36" font-family="TimesNewRomanPSMT"><tspan y="-689.97097" x="2144.3128 2166.2728 2184.2728 2202.2728 2212.2447 2228.1927 2252.0753 2262.047 2276.0909 2286.0628">LogicVista</tspan></text>
<text xml:space="preserve" transform="matrix(1 0 -0 1 -195.79376 1278.9398)" font-size="36" font-family="TimesNewRomanPSMT"><tspan y="-689.97097" x="2534.7327 2560.7716 2576.734 2586.6917 2596.6529 2620.6649 2636.6236 2654.6236 2670.5823">HallBench</tspan></text>
<text xml:space="preserve" transform="matrix(1 0 -0 1 -195.79376 1278.9398)" font-size="36" font-family="TimesNewRomanPSMT"><tspan y="-689.97097" x="2358.8726 2390.9127 2422.9527 2443.0047 2452.9659 2468.9246">MMStar</tspan></text>
<text xml:space="preserve" transform="matrix(1 0 -0 1 -195.79376 1278.9398)" font-size="45" font-family="TimesNewRomanPSMT"><tspan y="-630.2136" x="1932.2149 1947.1998 1977.2149 1992.1998 2003.4949 2033.5099 2053.427 2073.3485 2090.8533 2113.4163 2135.9749 2148.4534 2171.0164 2193.575 2208.56 2223.563 2246.108 2268.6529 2291.1978 2311.1192 2331.0406 2353.5855 2364.6104 2389.6754 2409.5968 2424.5953 2444.5167 2464.4337 2486.9786 2499.457 2511.9356 2534.4805 2557.0255 2568.3023 2595.7838 2610.7823 2625.7808 2648.3258 2663.3243">(C) Reasoning-Induced Perception Errors</tspan></text>
<g clip-path="url(#clip_26)">
<path transform="matrix(1,0,0,-1,1747.1218,27.543213)" d="M0 0C0 2.232 1.81 4.042 4.042 4.042H266.128C268.361 4.042 270.171 2.232 270.171 0V-87.52C270.171-89.752 268.361-91.562 266.128-91.562H4.042C1.81-91.562 0-89.752 0-87.52Z" fill="#ffffff" fill-rule="evenodd"/>
<path transform="matrix(1,0,0,-1,1747.1218,27.543213)" stroke-width="2.25" stroke-linecap="butt" stroke-miterlimit="8" stroke-linejoin="miter" fill="none" stroke="#cfcfcf" d="M0 0C0 2.232 1.81 4.042 4.042 4.042H266.128C268.361 4.042 270.171 2.232 270.171 0V-87.52C270.171-89.752 268.361-91.562 266.128-91.562H4.042C1.81-91.562 0-89.752 0-87.52Z"/>
</g>
<path transform="matrix(1,0,0,-1,-195.79376,1278.9398)" d="M1961.981 1240.738H2006.229V1214.437H1961.981Z" fill="#4c6cb3" fill-opacity=".901962" fill-rule="evenodd"/>
<text xml:space="preserve" transform="matrix(1 0 -0 1 -195.79376 1278.9398)" font-size="30" font-family="TimesNewRomanPSMT"><tspan y="-1218.1965" x="2013.4288 2030.1089 2045.1089 2053.389 2061.669 2069.3489 2089.389 2102.709 2116.029 2127.669 2142.669 2157.669 2165.949 2180.949">Full Reasoning</tspan></text>
<path transform="matrix(1,0,0,-1,-195.79376,1278.9398)" d="M1961.981 1199.753H2006.229V1173.452H1961.981Z" fill="#ebcbae" fill-opacity=".901962" fill-rule="evenodd"/>
<text xml:space="preserve" transform="matrix(1 0 -0 1 -195.79376 1278.9398)" font-size="30" font-family="TimesNewRomanPSMT"><tspan y="-1177.1546" x="2013.4288 2035.1489 2045.1089 2053.389 2066.709 2076.669 2084.3489 2104.389 2117.709 2131.029 2146.029 2161.029 2174.349 2184.309">After Recovery</tspan></text>
</g>
</g>
</svg>
