<svg xmlns="http://www.w3.org/2000/svg" xmlns:xlink="http://www.w3.org/1999/xlink" xmlns:inkscape="http://www.inkscape.org/namespaces/inkscape" version="1.1" width="2772.6925" height="745.2795" viewBox="0 0 2772.6925 745.2795">
<defs>
<clipPath id="clip_0">
<path transform="matrix(1,0,0,-1,-31.57964,1323.1514)" d="M31.57964 577.8719H2804.272V1323.1514H31.57964Z" clip-rule="evenodd"/>
</clipPath>
<clipPath id="clip_1">
<path transform="matrix(1,0,0,-1,-31.57964,1323.1514)" d="M88.605 643.943H1871.053V1331.911H88.605Z"/>
</clipPath>
<clipPath id="clip_2">
<path transform="matrix(1,0,0,-1,-31.57964,1323.1514)" d="M88.605 643.943H1871.053V1331.911H88.605Z"/>
</clipPath>
<clipPath id="clip_3">
<path transform="matrix(1,0,0,-1,-31.57964,1323.1514)" d="M88.605 643.943H1871.053V1331.911H88.605Z"/>
</clipPath>
<clipPath id="clip_4">
<path transform="matrix(1,0,0,-1,-31.57964,1323.1514)" d="M88.605 643.943H1871.053V1331.911H88.605Z"/>
</clipPath>
<clipPath id="clip_5">
<path transform="matrix(1,0,0,-1,-31.57964,1323.1514)" d="M88.605 643.943H1871.053V1331.911H88.605Z"/>
</clipPath>
<clipPath id="clip_6">
<path transform="matrix(1,0,0,-1,-31.57964,1323.1514)" d="M88.605 643.943H1871.053V1331.911H88.605Z"/>
</clipPath>
<clipPath id="clip_7">
<path transform="matrix(1,0,0,-1,-31.57964,1323.1514)" d="M88.605 643.943H1871.053V1331.911H88.605Z"/>
</clipPath>
<clipPath id="clip_8">
<path transform="matrix(1,0,0,-1,-31.57964,1323.1514)" d="M88.605 643.943H1871.053V1331.911H88.605Z"/>
</clipPath>
<clipPath id="clip_9">
<path transform="matrix(1,0,0,-1,-31.57964,1323.1514)" d="M88.605 643.943H1871.053V1331.911H88.605Z"/>
</clipPath>
<clipPath id="clip_10">
<path transform="matrix(1,0,0,-1,-31.57964,1323.1514)" d="M88.605 643.943H1871.053V1331.911H88.605Z"/>
</clipPath>
<clipPath id="clip_11">
<path transform="matrix(1,0,0,-1,-31.57964,1323.1514)" d="M88.605 643.943H1871.053V1331.911H88.605Z"/>
</clipPath>
<clipPath id="clip_12">
<path transform="matrix(1,0,0,-1,-31.57964,1323.1514)" d="M88.605 643.943H1871.053V1331.911H88.605Z"/>
</clipPath>
<clipPath id="clip_13">
<path transform="matrix(1,0,0,-1,-31.57964,1323.1514)" d="M88.605 643.943H1871.053V1331.911H88.605Z"/>
</clipPath>
<clipPath id="clip_14">
<path transform="matrix(1,0,0,-1,-31.57964,1323.1514)" d="M88.605 643.943H1871.053V1331.911H88.605Z"/>
</clipPath>
<clipPath id="clip_15">
<path transform="matrix(1,0,0,-1,-31.57964,1323.1514)" d="M88.605 643.943H1871.053V1331.911H88.605Z"/>
</clipPath>
<clipPath id="clip_16">
<path transform="matrix(1,0,0,-1,-31.57964,1323.1514)" d="M88.605 643.943H1871.053V1331.911H88.605Z"/>
</clipPath>
<clipPath id="clip_17">
<path transform="matrix(1,0,0,-1,-31.57964,1323.1514)" d="M88.605 643.943H1871.053V1331.911H88.605Z"/>
</clipPath>
<clipPath id="clip_18">
<path transform="matrix(1,0,0,-1,-31.57964,1323.1514)" d="M88.605 643.943H1871.053V1331.911H88.605Z"/>
</clipPath>
<clipPath id="clip_19">
<path transform="matrix(1,0,0,-1,-31.57964,1323.1514)" d="M88.605 643.943H1871.053V1331.911H88.605Z"/>
</clipPath>
<clipPath id="clip_20">
<path transform="matrix(1,0,0,-1,-31.57964,1323.1514)" d="M88.605 643.943H1871.053V1331.911H88.605Z"/>
</clipPath>
<clipPath id="clip_21">
<path transform="matrix(1,0,0,-1,-31.57964,1323.1514)" d="M88.605 643.943H1871.053V1331.911H88.605Z"/>
</clipPath>
<clipPath id="clip_22">
<path transform="matrix(1,0,0,-1,-31.57964,1323.1514)" d="M88.605 643.943H1871.053V1331.911H88.605Z"/>
</clipPath>
<clipPath id="clip_23">
<path transform="matrix(1,0,0,-1,-31.57964,1323.1514)" d="M88.605 643.943H1871.053V1331.911H88.605Z"/>
</clipPath>
<clipPath id="clip_24">
<path transform="matrix(1,0,0,-1,-31.57964,1323.1514)" d="M88.605 643.943H1871.053V1331.911H88.605Z"/>
</clipPath>
<clipPath id="clip_25">
<path transform="matrix(1,0,0,-1,-31.57964,1323.1514)" d="M1902.173 700.509H2791.477V1304.393H1902.173Z"/>
</clipPath>
<clipPath id="clip_26">
<path transform="matrix(1,0,0,-1,-31.57964,1323.1514)" d="M1851.224 643.943H2854.779V1331.911H1851.224Z"/>
</clipPath>
<clipPath id="clip_27">
<path transform="matrix(1,0,0,-1,-31.57964,1323.1514)" d="M1851.224 643.943H2854.779V1331.911H1851.224Z"/>
</clipPath>
<clipPath id="clip_28">
<path transform="matrix(1,0,0,-1,-31.57964,1323.1514)" d="M1851.224 643.943H2854.779V1331.911H1851.224Z"/>
</clipPath>
<clipPath id="clip_29">
<path transform="matrix(1,0,0,-1,-31.57964,1323.1514)" d="M1851.224 643.943H2854.779V1331.911H1851.224Z"/>
</clipPath>
<clipPath id="clip_30">
<path transform="matrix(1,0,0,-1,-31.57964,1323.1514)" d="M1851.224 643.943H2854.779V1331.911H1851.224Z"/>
</clipPath>
<clipPath id="clip_31">
<path transform="matrix(1,0,0,-1,-31.57964,1323.1514)" d="M1851.224 643.943H2854.779V1331.911H1851.224Z"/>
</clipPath>
<clipPath id="clip_32">
<path transform="matrix(1,0,0,-1,-31.57964,1323.1514)" d="M1851.224 643.943H2854.779V1331.911H1851.224Z"/>
</clipPath>
<clipPath id="clip_33">
<path transform="matrix(1,0,0,-1,-31.57964,1323.1514)" d="M1851.224 643.943H2854.779V1331.911H1851.224Z"/>
</clipPath>
<clipPath id="clip_34">
<path transform="matrix(1,0,0,-1,-31.57964,1323.1514)" d="M1851.224 643.943H2854.779V1331.911H1851.224Z"/>
</clipPath>
<clipPath id="clip_35">
<path transform="matrix(1,0,0,-1,-31.57964,1323.1514)" d="M1851.224 643.943H2854.779V1331.911H1851.224Z"/>
</clipPath>
<clipPath id="clip_36">
<path transform="matrix(1,0,0,-1,-31.57964,1323.1514)" d="M1851.224 643.943H2854.779V1331.911H1851.224Z"/>
</clipPath>
<clipPath id="clip_37">
<path transform="matrix(1,0,0,-1,-31.57964,1323.1514)" d="M1851.224 643.943H2854.779V1331.911H1851.224Z"/>
</clipPath>
<clipPath id="clip_38">
<path transform="matrix(1,0,0,-1,-31.57964,1323.1514)" d="M1851.224 643.943H2854.779V1331.911H1851.224Z"/>
</clipPath>
<clipPath id="clip_39">
<path transform="matrix(1,0,0,-1,-31.57964,1323.1514)" d="M1851.224 643.943H2854.779V1331.911H1851.224Z"/>
</clipPath>
<clipPath id="clip_40">
<path transform="matrix(1,0,0,-1,-31.57964,1323.1514)" d="M1851.224 643.943H2854.779V1331.911H1851.224Z"/>
</clipPath>
<clipPath id="clip_41">
<path transform="matrix(1,0,0,-1,-31.57964,1323.1514)" d="M1851.224 643.943H2854.779V1331.911H1851.224Z"/>
</clipPath>
<clipPath id="clip_42">
<path transform="matrix(1,0,0,-1,-31.57964,1323.1514)" d="M0 0H2880V1620H0Z"/>
</clipPath>
<clipPath id="clip_43">
<path transform="matrix(1,0,0,-1,-31.57964,1323.1514)" d="M0 0H2880V1620H0Z"/>
</clipPath>
<clipPath id="clip_44">
<path transform="matrix(1,0,0,-1,-31.57964,1323.1514)" d="M0 0H2880V1620H0Z"/>
</clipPath>
</defs>
<g>
<g clip-path="url(#clip_0)">
<g inkscape:groupmode="layer" inkscape:label="Background">
<path transform="matrix(1,0,0,-1,-31.57964,1323.1514)" d="M0 0H2880V1620H0Z" fill="#ffffff"/>
</g>
<path transform="matrix(1.485373,0,0,1.5288184,-31.579632,1323.1514)" d="M59.652-871.203H1259.652V-421.203H59.652Z" fill="#ffffff"/>
<path transform="matrix(1.4853729,0,0,1.5288184,163.49724,20.287354)" stroke-width="1.5" stroke-linecap="butt" stroke-dasharray="3,3" stroke-miterlimit="4" stroke-linejoin="miter" fill="none" stroke="#cfcfcf" d="M0 0V394"/>
<path transform="matrix(1.4853729,0,0,1.5288184,470.67256,20.28711)" stroke-width="1.5" stroke-linecap="butt" stroke-dasharray="3,3" stroke-miterlimit="4" stroke-linejoin="miter" fill="none" stroke="#cfcfcf" d="M0 0V394"/>
<path transform="matrix(1.4853729,0,0,1.5288184,777.8478,20.286866)" stroke-width="1.5" stroke-linecap="butt" stroke-dasharray="3,3" stroke-miterlimit="4" stroke-linejoin="miter" fill="none" stroke="#cfcfcf" d="M0 0V394"/>
<path transform="matrix(1.4853729,0,0,1.5288184,1085.023,20.286622)" stroke-width="1.5" stroke-linecap="butt" stroke-dasharray="3,3" stroke-miterlimit="4" stroke-linejoin="miter" fill="none" stroke="#cfcfcf" d="M0 0V394"/>
<path transform="matrix(1.4853729,0,0,1.5288184,1392.1984,20.286377)" stroke-width="1.5" stroke-linecap="butt" stroke-dasharray="3,3" stroke-miterlimit="4" stroke-linejoin="miter" fill="none" stroke="#cfcfcf" d="M0 0V394"/>
<path transform="matrix(1.4853729,0,0,1.5288184,1699.3738,20.286133)" stroke-width="1.5" stroke-linecap="butt" stroke-dasharray="3,3" stroke-miterlimit="4" stroke-linejoin="miter" fill="none" stroke="#cfcfcf" d="M0 0V394"/>
<path transform="matrix(1.4853729,0,0,1.5288184,132.78092,502.16963)" stroke-width="1.5" stroke-linecap="butt" stroke-dasharray="3,3" stroke-miterlimit="4" stroke-linejoin="miter" fill="none" stroke="#cfcfcf" d="M0 0H1075.36"/>
<path transform="matrix(1.4853729,0,0,1.5288184,132.78093,381.6985)" stroke-width="1.5" stroke-linecap="butt" stroke-dasharray="3,3" stroke-miterlimit="4" stroke-linejoin="miter" fill="none" stroke="#cfcfcf" d="M0 0H1075.36"/>
<path transform="matrix(1.4853729,0,0,1.5288184,132.78095,261.2273)" stroke-width="1.5" stroke-linecap="butt" stroke-dasharray="3,3" stroke-miterlimit="4" stroke-linejoin="miter" fill="none" stroke="#cfcfcf" d="M0 0H1075.36"/>
<path transform="matrix(1.4853729,0,0,1.5288184,132.78096,140.75623)" stroke-width="1.5" stroke-linecap="butt" stroke-dasharray="3,3" stroke-miterlimit="4" stroke-linejoin="miter" fill="none" stroke="#cfcfcf" d="M0 0H1075.36"/>
<path transform="matrix(1.485373,0,0,1.5288184,163.49723,82.204959)" stroke-width="3" stroke-linecap="butt" stroke-miterlimit="2" stroke-linejoin="miter" fill="none" stroke="#4c6cb3" stroke-opacity=".898041" d="M0 0 4.14 3 8.27 8.67 12.41 6.62 16.54-2.2 24.82 12.3 28.95 20.65 37.22 9.3 41.36 17.65 45.5 21.28 49.63 26.64 53.77 3.16 57.9 15.61 62.04 25.22 66.18 31.05 70.31 33.73 74.45 27.58 78.58 23.64 82.72 22.22 86.86 26.64 90.99 35.78 99.26 40.98 103.4 37.83 107.54 30.89 111.67 35.46 115.81 44.29 119.94 39.72 124.08 24.75 128.22 27.58 132.35 33.73 136.49 46.02 144.76 53.9 148.9 48.23 153.03 56.42 157.17 67.14 161.3 69.5 165.44 56.58 169.58 51.38 173.71 69.66 177.85 73.92 181.98 75.18 190.26 83.37 194.39 84.95 198.53 88.57 202.66 80.69 210.94 87.79 215.07 94.25 219.21 103.55 223.34 93.93 227.48 101.81 231.62 113.48 235.75 125.77 239.89 121.36 244.02 132.7 248.16 117.57 252.3 135.38 256.43 139.79 264.7 147.52 268.84 155.4 272.98 163.91 277.11 160.44 281.25 150.98 285.38 165.96 289.52 173.05 293.66 178.56 297.79 168.48 301.93 173.36 306.06 176.2 310.2 182.35 314.34 192.12 318.47 190.7 322.61 185.66 326.74 196.85 330.88 199.68 335.02 207.72 339.15 207.56 343.29 197.63 347.42 210.87 351.56 218.59 355.7 213.71 359.83 223.32 363.97 220.49 368.1 216.07 372.24 218.91 376.38 229.63 380.51 220.33 384.65 201.42 388.78 225.21 392.92 232.94 397.06 237.82 401.19 215.92 405.33 235.93 409.46 243.97 413.6 247.28 417.74 255 421.87 236.88 426.01 233.09 430.14 229.63 434.28 237.66 438.42 229.94 442.55 255.32 446.69 254.84 450.82 256.58 459.1 262.88 463.23 267.61 471.5 242.23 475.64 253.42 479.78 248.7 483.91 269.18 488.05 262.88 492.18 271.08 500.46 264.61 504.59 271.08 508.73 258.15 512.86 273.6 517 283.68 521.14 277.06 525.27 274.86 529.41 271.08 533.54 278.64 537.68 275.65 541.82 270.6 545.95 280.37 550.09 281.95 554.22 276.75 558.36 270.29 562.5 283.68 566.63 263.51 570.77 259.26 574.9 276.43 579.04 283.05 583.18 290.3 587.31 292.67 591.45 291.88 595.58 299.76 599.72 301.02 603.86 293.77 607.99 302.91 612.13 300.23 616.26 298.02 620.4 289.83 624.54 283.37 628.67 280.85 632.81 288.25 636.94 293.45 641.08 295.98 645.22 297.39 649.35 302.44 653.49 305.12 657.62 304.33 661.76 313.63 665.9 312.68 670.03 308.11 674.17 305.75 678.3 299.76 690.71 308.27 694.85 314.73 698.98 313.15 703.12 321.66 707.26 311.74 711.39 315.2 715.53 312.84 719.66 318.67 723.8 308.74 727.94 304.17 732.07 302.28 736.21 319.3 740.34 321.35 744.48 322.3 748.62 320.25 752.75 324.5 756.89 325.92 761.02 321.66 765.16 318.2 769.3 321.51 773.43 312.37 777.57 305.9 781.7 311.11 785.84 319.62 789.98 325.45 794.11 333.96 798.25 328.6 802.38 321.35 806.52 324.19 810.66 333.96 814.79 317.88 818.93 323.87 827.2 316.31 831.34 318.2 835.47 313.78 839.61 313.47 843.74 315.05 847.88 312.68 852.02 316.94 856.15 324.34 860.29 333.8 864.42 337.58 872.7 327.5 876.83 332.22 880.97 334.27 885.1 335.06 893.38 324.19 897.51 323.24 901.65 330.65 905.78 335.22 909.92 332.07 914.06 337.11 918.19 339.47 922.33 343.26 926.46 337.11 930.6 334.12 938.87 323.4 943.01 335.69 947.14 342 951.28 344.36 955.42 339.16 959.55 337.27 963.69 330.65 967.82 335.85 971.96 342.31 976.1 346.41 980.23 336.16 984.37 334.59 988.5 330.33 992.64 321.19 996.78 324.19 1000.91 331.12 1009.18 344.67 1013.32 339.47 1021.59 344.2 1025.73 343.73 1029.86 340.73 1034 342"/>
<path transform="matrix(1.4853729,0,0,1.5288184,163.49726,134.01636)" stroke-width="3" stroke-linecap="butt" stroke-miterlimit="2" stroke-linejoin="miter" fill="none" stroke="#5c7866" stroke-opacity=".898041" d="M0 0 8.27 6.14 12.41 4.25 16.54 8.67 20.68 9.93 24.82 3.31 28.95 6.14 33.09 8.98 37.22 5.99 41.36 13.55 45.5 7.4 49.63 9.3 53.77 16.39 57.9 6.77 62.04 1.1 66.18 5.36 70.31 8.03 78.58 14.34 82.72 20.01 86.86 24.11 90.99 25.84 95.13 20.49 99.26 27.42 103.4 24.74 107.54 20.49 111.67 25.21 115.81 14.5 119.94 13.08 124.08 7.4 128.22 17.81 132.35 23.48 136.49 21.75 140.62 12.13 144.76 9.77 148.9 17.49 153.03 14.65 157.17 22.22 161.3 21.75 165.44 26 169.58 31.83 173.71 24.74 177.85 12.45 181.98 16.23 190.26 22.85 194.39 28.21 198.53 35.46 202.66 36.56 206.8 30.57 210.94 28.84 215.07 32.78 219.21 38.45 223.34 36.4 227.48 29.94 231.62 27.1 235.75 35.46 239.89 41.6 244.02 45.54 248.16 44.44 252.3 40.5 256.43 48.54 260.57 52.01 264.7 57.36 268.84 64.77 277.11 57.21 281.25 46.33 289.52 60.52 293.66 69.34 297.79 61.62 301.93 71.39 306.06 75.65 310.2 82.89 314.34 84 318.47 87.31 322.61 82.74 326.74 75.65 330.88 77.85 335.02 86.05 339.15 90.14 343.29 98.34 347.42 102.28 351.56 98.02 355.7 110.95 359.83 107.48 363.97 114.41 368.1 101.33 372.24 93.93 376.38 91.56 380.51 105.59 384.65 111.26 388.78 119.62 392.92 123.71 397.06 114.57 401.19 116.62 405.33 125.6 409.46 127.5 417.74 132.54 421.87 131.44 426.01 136.01 430.14 129.86 434.28 124.5 438.42 127.02 442.55 121.35 446.69 130.33 450.82 134.27 454.96 129.39 459.1 123.56 463.23 133.17 467.37 139.95 471.5 135.06 475.64 130.17 479.78 132.38 488.05 142.63 492.18 144.83 496.32 150.51 500.46 147.04 504.59 141.05 508.73 138.69 525.27 154.13 529.41 152.08 533.54 148.46 537.68 161.22 541.82 156.18 545.95 147.04 550.09 145.93 554.22 149.72 558.36 152.71 562.5 145.93 566.63 150.51 570.77 156.34 574.9 161.69 579.04 162.48 583.18 156.34 587.31 147.83 591.45 158.07 595.58 150.82 599.72 163.9 603.86 168 607.99 165.32 612.13 161.54 616.26 155.08 620.4 150.19 624.54 145.93 628.67 156.81 632.81 166.27 636.94 168.47 641.08 163.59 645.22 161.06 649.35 152.24 653.49 154.6 657.62 168.63 661.76 166.74 665.9 173.83 670.03 163.9 674.17 156.18 678.3 172.41 682.44 168.47 686.58 161.85 690.71 174.46 694.85 170.36 698.98 164.37 703.12 177.61 711.39 152.71 715.53 152.24 719.66 148.14 723.8 153.66 727.94 163.27 732.07 170.05 736.21 173.99 740.34 165.48 744.48 158.23 748.62 162.33 752.75 173.83 756.89 168.79 761.02 177.45 765.16 178.09 769.3 172.73 773.43 180.92 777.57 178.56 781.7 172.41 789.98 161.69 794.11 165.63 798.25 158.39 802.38 155.08 806.52 167.53 810.66 184.55 814.79 180.45 818.93 182.03 823.06 176.98 827.2 179.35 831.34 180.29 835.47 174.46 839.61 172.41 843.74 178.09 847.88 181.24 852.02 181.55 856.15 185.02 860.29 182.97 868.56 177.14 872.7 178.09 876.83 182.97 880.97 186.6 885.1 184.7 889.24 192.9 893.38 193.85 897.51 191.64 901.65 188.8 905.78 191.17 909.92 192.43 914.06 195.26 918.19 198.26 922.33 193.85 926.46 186.28 930.6 180.92 934.74 181.87 938.87 187.7 947.14 197 951.28 195.11 955.42 189.75 959.55 186.44 963.69 188.64 967.82 192.11 976.1 195.26 980.23 194.48 984.37 190.38 988.5 191.8 992.64 188.96 996.78 190.38 1000.91 195.74 1005.05 198.1 1009.18 197 1013.32 195.11 1021.59 199.99 1025.73 198.26 1029.86 192.74 1034 188.64"/>
<path transform="matrix(1.485373,0,0,1.5288184,129.80896,624.1709)" stroke-width="2" stroke-linecap="butt" stroke-miterlimit="4" stroke-linejoin="miter" fill="none" stroke="#3c3c3c" d="M0 0H1079.36M0-396H1079.36"/>
<path transform="matrix(1.4853729,0,0,1.5288184,131.29436,20.287354)" stroke-width="2" stroke-linecap="butt" stroke-miterlimit="4" stroke-linejoin="miter" fill="none" stroke="#3c3c3c" d="M0 0V394M1077.36 0V394"/>
<g clip-path="url(#clip_1)">
<text fill="#2a3f5f" xml:space="preserve" transform="matrix(.9856889 0 -0 1.0145189 -31.57964 1323.1514)" font-size="30.138819" font-family="OpenSans"><tspan y="-651.3039" x="189.29288">0</tspan></text>
</g>
<g clip-path="url(#clip_2)">
<text fill="#2a3f5f" xml:space="preserve" transform="matrix(.9856889 0 -0 1.0145189 -31.57964 1323.1514)" font-size="30.138819" font-family="OpenSans"><tspan y="-651.3039" x="492.3116 508.88798">50</tspan></text>
</g>
<g clip-path="url(#clip_3)">
<text fill="#2a3f5f" xml:space="preserve" transform="matrix(.9856889 0 -0 1.0145189 -31.57964 1323.1514)" font-size="30.138819" font-family="OpenSans"><tspan y="-651.3039" x="795.33016 811.9065 829.98977">100</tspan></text>
</g>
<g clip-path="url(#clip_4)">
<text fill="#2a3f5f" xml:space="preserve" transform="matrix(.9856889 0 -0 1.0145189 -31.57964 1323.1514)" font-size="30.138819" font-family="OpenSans"><tspan y="-651.3039" x="1106.9652 1123.5415 1141.6248">150</tspan></text>
</g>
<g clip-path="url(#clip_5)">
<text fill="#2a3f5f" xml:space="preserve" transform="matrix(.9856889 0 -0 1.0145189 -31.57964 1323.1514)" font-size="30.138819" font-family="OpenSans"><tspan y="-651.3039" x="1418.6 1435.1764 1453.2597">200</tspan></text>
</g>
<g clip-path="url(#clip_6)">
<text fill="#2a3f5f" xml:space="preserve" transform="matrix(.9856889 0 -0 1.0145189 -31.57964 1323.1514)" font-size="30.138819" font-family="OpenSans"><tspan y="-651.3039" x="1730.235 1746.8114 1764.8947">250</tspan></text>
</g>
<g clip-path="url(#clip_7)">
<text fill="#2a3f5f" xml:space="preserve" transform="matrix(.9856889 0 -0 1.0145189 -31.57964 1323.1514)" font-size="30.138819" font-family="OpenSans"><tspan y="-679.9357" x="97.98579">0</tspan></text>
</g>
<g clip-path="url(#clip_8)">
<text fill="#2a3f5f" xml:space="preserve" transform="matrix(.9856889 0 -0 1.0145189 -31.57964 1323.1514)" font-size="30.138819" font-family="OpenSans"><tspan y="-679.9357" x="115.21841">.</tspan></text>
</g>
<g clip-path="url(#clip_9)">
<text fill="#2a3f5f" xml:space="preserve" transform="matrix(.9856889 0 -0 1.0145189 -31.57964 1323.1514)" font-size="30.138819" font-family="OpenSans"><tspan y="-679.9357" x="123.23878 139.81513">05</tspan></text>
</g>
<g clip-path="url(#clip_10)">
<text fill="#2a3f5f" xml:space="preserve" transform="matrix(.9856889 0 -0 1.0145189 -31.57964 1323.1514)" font-size="30.138819" font-family="OpenSans"><tspan y="-798.68258" x="97.98579">0</tspan></text>
</g>
<g clip-path="url(#clip_11)">
<text fill="#2a3f5f" xml:space="preserve" transform="matrix(.9856889 0 -0 1.0145189 -31.57964 1323.1514)" font-size="30.138819" font-family="OpenSans"><tspan y="-798.68258" x="115.21841">.</tspan></text>
</g>
<g clip-path="url(#clip_12)">
<text fill="#2a3f5f" xml:space="preserve" transform="matrix(.9856889 0 -0 1.0145189 -31.57964 1323.1514)" font-size="30.138819" font-family="OpenSans"><tspan y="-798.68258" x="123.23878 139.81513">10</tspan></text>
</g>
<g clip-path="url(#clip_13)">
<text fill="#2a3f5f" xml:space="preserve" transform="matrix(.9856889 0 -0 1.0145189 -31.57964 1323.1514)" font-size="30.138819" font-family="OpenSans"><tspan y="-917.4294" x="97.98579">0</tspan></text>
</g>
<g clip-path="url(#clip_14)">
<text fill="#2a3f5f" xml:space="preserve" transform="matrix(.9856889 0 -0 1.0145189 -31.57964 1323.1514)" font-size="30.138819" font-family="OpenSans"><tspan y="-917.4294" x="115.21841">.</tspan></text>
</g>
<g clip-path="url(#clip_15)">
<text fill="#2a3f5f" xml:space="preserve" transform="matrix(.9856889 0 -0 1.0145189 -31.57964 1323.1514)" font-size="30.138819" font-family="OpenSans"><tspan y="-917.4294" x="123.23878 139.81513">15</tspan></text>
</g>
<g clip-path="url(#clip_16)">
<text fill="#2a3f5f" xml:space="preserve" transform="matrix(.9856889 0 -0 1.0145189 -31.57964 1323.1514)" font-size="30.138819" font-family="OpenSans"><tspan y="-1036.1763" x="97.98579">0</tspan></text>
</g>
<g clip-path="url(#clip_17)">
<text fill="#2a3f5f" xml:space="preserve" transform="matrix(.9856889 0 -0 1.0145189 -31.57964 1323.1514)" font-size="30.138819" font-family="OpenSans"><tspan y="-1036.1763" x="115.21841">.</tspan></text>
</g>
<g clip-path="url(#clip_18)">
<text fill="#2a3f5f" xml:space="preserve" transform="matrix(.9856889 0 -0 1.0145189 -31.57964 1323.1514)" font-size="30.138819" font-family="OpenSans"><tspan y="-1036.1763" x="123.23878 139.81513">20</tspan></text>
</g>
<g clip-path="url(#clip_19)">
<text fill="#2a3f5f" xml:space="preserve" transform="matrix(.9856889 0 -0 1.0145189 -31.57964 1323.1514)" font-size="30.138819" font-family="OpenSans"><tspan y="-1154.923" x="97.98579">0</tspan></text>
</g>
<g clip-path="url(#clip_20)">
<text fill="#2a3f5f" xml:space="preserve" transform="matrix(.9856889 0 -0 1.0145189 -31.57964 1323.1514)" font-size="30.138819" font-family="OpenSans"><tspan y="-1154.923" x="115.21841">.</tspan></text>
</g>
<g clip-path="url(#clip_21)">
<text fill="#2a3f5f" xml:space="preserve" transform="matrix(.9856889 0 -0 1.0145189 -31.57964 1323.1514)" font-size="30.138819" font-family="OpenSans"><tspan y="-1154.923" x="123.23878 139.81513">25</tspan></text>
</g>
<g clip-path="url(#clip_22)">
<text fill="#2a3f5f" xml:space="preserve" transform="matrix(.9856889 0 -0 1.0145189 -31.57964 1323.1514)" font-size="30.138819" font-family="OpenSans"><tspan y="-1273.6699" x="97.98579">0</tspan></text>
</g>
<g clip-path="url(#clip_23)">
<text fill="#2a3f5f" xml:space="preserve" transform="matrix(.9856889 0 -0 1.0145189 -31.57964 1323.1514)" font-size="30.138819" font-family="OpenSans"><tspan y="-1273.6699" x="115.21841">.</tspan></text>
</g>
<g clip-path="url(#clip_24)">
<text fill="#2a3f5f" xml:space="preserve" transform="matrix(.9856889 0 -0 1.0145189 -31.57964 1323.1514)" font-size="30.138819" font-family="OpenSans"><tspan y="-1273.6699" x="123.23878 139.81513">30</tspan></text>
</g>
<path transform="matrix(1.5439303,0,0,1.5288184,-31.57964,1323.1515)" d="M1199.033-871.203H1849.033V-421.203H1199.033Z" fill="#ffffff"/>
<path transform="matrix(1.5439303,0,0,1.5288184,1908.5746,20.287842)" stroke-width="1.5" stroke-linecap="butt" stroke-dasharray="3,3" stroke-miterlimit="4" stroke-linejoin="miter" fill="none" stroke="#cfcfcf" d="M0 0V394"/>
<path transform="matrix(1.5439303,0,0,1.5288184,2070.5484,20.287842)" stroke-width="1.5" stroke-linecap="butt" stroke-dasharray="3,3" stroke-miterlimit="4" stroke-linejoin="miter" fill="none" stroke="#cfcfcf" d="M0 0V394"/>
<path transform="matrix(1.5439303,0,0,1.5288184,2232.5067,20.287842)" stroke-width="1.5" stroke-linecap="butt" stroke-dasharray="3,3" stroke-miterlimit="4" stroke-linejoin="miter" fill="none" stroke="#cfcfcf" d="M0 0V394"/>
<path transform="matrix(1.5439303,0,0,1.5288184,2394.465,20.287842)" stroke-width="1.5" stroke-linecap="butt" stroke-dasharray="3,3" stroke-miterlimit="4" stroke-linejoin="miter" fill="none" stroke="#cfcfcf" d="M0 0V394"/>
<path transform="matrix(1.5439303,0,0,1.5288184,2556.4234,20.287842)" stroke-width="1.5" stroke-linecap="butt" stroke-dasharray="3,3" stroke-miterlimit="4" stroke-linejoin="miter" fill="none" stroke="#cfcfcf" d="M0 0V394"/>
<path transform="matrix(1.5439303,0,0,1.5288184,2718.3817,20.287842)" stroke-width="1.5" stroke-linecap="butt" stroke-dasharray="3,3" stroke-miterlimit="4" stroke-linejoin="miter" fill="none" stroke="#cfcfcf" d="M0 0V394"/>
<path transform="matrix(1.5439303,0,0,1.5288184,1872.138,421.86256)" stroke-width="1.5" stroke-linecap="butt" stroke-dasharray="3,3" stroke-miterlimit="4" stroke-linejoin="miter" fill="none" stroke="#cfcfcf" d="M0 0H574.34"/>
<path transform="matrix(1.5439303,0,0,1.5288184,1872.138,221.06763)" stroke-width="1.5" stroke-linecap="butt" stroke-dasharray="3,3" stroke-miterlimit="4" stroke-linejoin="miter" fill="none" stroke="#cfcfcf" d="M0 0H574.34"/>
<path transform="matrix(1.5439303,0,0,1.5288184,1908.5746,583.1531)" stroke-width="4" stroke-linecap="butt" stroke-miterlimit="2" stroke-linejoin="miter" fill="none" stroke="#4c6cb3" stroke-opacity=".898041" d="M0 0 26.23-15.32 52.45-21.01 78.68-59.97 104.91-75.3 131.13-137.46 157.36-173.36 183.58-202.25 209.81-235.96 236.03-252.6 262.26-254.35 288.48-261.79 314.71-254.79 340.94-261.35 367.16-257.41 419.61-231.15 445.84-225.45 472.06-221.08 498.29-209.69 524.51-210.13"/>
<g clip-path="url(#clip_25)">
<path transform="matrix(1.5439303,0,0,1.5288184,1917.8383,583.15298)" d="M0 0C0 3.314-2.686 6-6 6-9.314 6-12 3.314-12 0-12-3.314-9.314-6-6-6-2.686-6 0-3.314 0 0" fill="#4c6cb3"/>
<path transform="matrix(1.5439303,0,0,1.5288184,1958.3357,559.73147)" d="M0 0C0 3.314-2.686 6-6 6-9.314 6-12 3.314-12 0-12-3.314-9.314-6-6-6-2.686-6 0-3.314 0 0" fill="#4c6cb3"/>
<path transform="matrix(1.5439303,0,0,1.5288184,1998.8175,551.0325)" d="M0 0C0 3.314-2.686 6-6 6-9.314 6-12 3.314-12 0-12-3.314-9.314-6-6-6-2.686-6 0-3.314 0 0" fill="#4c6cb3"/>
<path transform="matrix(1.5439303,0,0,1.5288184,2039.3145,491.46974)" d="M0 0C0 3.314-2.686 6-6 6-9.314 6-12 3.314-12 0-12-3.314-9.314-6-6-6-2.686-6 0-3.314 0 0" fill="#4c6cb3"/>
<path transform="matrix(1.5439303,0,0,1.5288184,2079.8118,468.0329)" d="M0 0C0 3.314-2.686 6-6 6-9.314 6-12 3.314-12 0-12-3.314-9.314-6-6-6-2.686-6 0-3.314 0 0" fill="#4c6cb3"/>
<path transform="matrix(1.5439303,0,0,1.5288184,2120.2938,373.0016)" d="M0 0C0 3.314-2.686 6-6 6-9.314 6-12 3.314-12 0-12-3.314-9.314-6-6-6-2.686-6 0-3.314 0 0" fill="#4c6cb3"/>
<path transform="matrix(1.5439303,0,0,1.5288184,2160.791,318.1172)" d="M0 0C0 3.314-2.686 6-6 6-9.314 6-12 3.314-12 0-12-3.314-9.314-6-6-6-2.686-6 0-3.314 0 0" fill="#4c6cb3"/>
<path transform="matrix(1.5439303,0,0,1.5288184,2201.273,273.94947)" d="M0 0C0 3.314-2.686 6-6 6-9.314 6-12 3.314-12 0-12-3.314-9.314-6-6-6-2.686-6 0-3.314 0 0" fill="#4c6cb3"/>
<path transform="matrix(1.5439303,0,0,1.5288184,2241.77,222.41297)" d="M0 0C0 3.314-2.686 6-6 6-9.314 6-12 3.314-12 0-12-3.314-9.314-6-6-6-2.686-6 0-3.314 0 0" fill="#4c6cb3"/>
<path transform="matrix(1.5439303,0,0,1.5288184,2282.2523,196.97364)" d="M0 0C0 3.314-2.686 6-6 6-9.314 6-12 3.314-12 0-12-3.314-9.314-6-6-6-2.686-6 0-3.314 0 0" fill="#4c6cb3"/>
<path transform="matrix(1.5439303,0,0,1.5288184,2322.7493,194.29798)" d="M0 0C0 3.314-2.686 6-6 6-9.314 6-12 3.314-12 0-12-3.314-9.314-6-6-6-2.686-6 0-3.314 0 0" fill="#4c6cb3"/>
<path transform="matrix(1.5439303,0,0,1.5288184,2363.2315,182.92359)" d="M0 0C0 3.314-2.686 6-6 6-9.314 6-12 3.314-12 0-12-3.314-9.314-6-6-6-2.686-6 0-3.314 0 0" fill="#4c6cb3"/>
<path transform="matrix(1.5439303,0,0,1.5288184,2403.7288,193.62537)" d="M0 0C0 3.314-2.686 6-6 6-9.314 6-12 3.314-12 0-12-3.314-9.314-6-6-6-2.686-6 0-3.314 0 0" fill="#4c6cb3"/>
<path transform="matrix(1.5439303,0,0,1.5288184,2444.2259,183.59632)" d="M0 0C0 3.314-2.686 6-6 6-9.314 6-12 3.314-12 0-12-3.314-9.314-6-6-6-2.686-6 0-3.314 0 0" fill="#4c6cb3"/>
<path transform="matrix(1.5439303,0,0,1.5288184,2484.7078,189.61988)" d="M0 0C0 3.314-2.686 6-6 6-9.314 6-12 3.314-12 0-12-3.314-9.314-6-6-6-2.686-6 0-3.314 0 0" fill="#4c6cb3"/>
<path transform="matrix(1.5439303,0,0,1.5288184,2525.205,209.02051)" d="M0 0C0 3.314-2.686 6-6 6-9.314 6-12 3.314-12 0-12-3.314-9.314-6-6-6-2.686-6 0-3.314 0 0" fill="#4c6cb3"/>
<path transform="matrix(1.5439303,0,0,1.5288184,2565.687,229.7666)" d="M0 0C0 3.314-2.686 6-6 6-9.314 6-12 3.314-12 0-12-3.314-9.314-6-6-6-2.686-6 0-3.314 0 0" fill="#4c6cb3"/>
<path transform="matrix(1.5439303,0,0,1.5288184,2606.1844,238.48084)" d="M0 0C0 3.314-2.686 6-6 6-9.314 6-12 3.314-12 0-12-3.314-9.314-6-6-6-2.686-6 0-3.314 0 0" fill="#4c6cb3"/>
<path transform="matrix(1.5439303,0,0,1.5288184,2646.6658,245.16187)" d="M0 0C0 3.314-2.686 6-6 6-9.314 6-12 3.314-12 0-12-3.314-9.314-6-6-6-2.686-6 0-3.314 0 0" fill="#4c6cb3"/>
<path transform="matrix(1.5439303,0,0,1.5288184,2687.1634,262.57496)" d="M0 0C0 3.314-2.686 6-6 6-9.314 6-12 3.314-12 0-12-3.314-9.314-6-6-6-2.686-6 0-3.314 0 0" fill="#4c6cb3"/>
<path transform="matrix(1.5439303,0,0,1.5288184,2727.645,261.90235)" d="M0 0C0 3.314-2.686 6-6 6-9.314 6-12 3.314-12 0-12-3.314-9.314-6-6-6-2.686-6 0-3.314 0 0" fill="#4c6cb3"/>
<path transform="matrix(1.5439303,0,0,1.5288184,1908.5746,548.3572)" stroke-width="4" stroke-linecap="butt" stroke-miterlimit="2" stroke-linejoin="miter" fill="none" stroke="#5c7866" stroke-opacity=".898041" d="M0 0 52.45-10.95 78.68-12.26 104.91-36.34 131.13-44.66 157.36-76.18 183.58-138.34 209.81-162.86 236.03-197.88 262.26-227.65 288.48-246.47 314.71-251.29 340.94-268.36 367.16-271.86 393.39-281.49 419.61-273.61 445.84-287.19 472.06-288.94 498.29-301.19 524.51-297.69"/>
<path transform="matrix(1.5439303,0,0,1.5288184,1920.6173,548.35708)" d="M0 0-7.8 7.8-15.6 0-7.8-7.8Z" fill="#5c7866"/>
<path transform="matrix(1.5439303,0,0,1.5288184,1961.1149,540.3155)" d="M0 0-7.8 7.8-15.6 0-7.8-7.8Z" fill="#5c7866"/>
<path transform="matrix(1.5439303,0,0,1.5288184,2001.5966,531.6165)" d="M0 0-7.8 7.8-15.6 0-7.8-7.8Z" fill="#5c7866"/>
<path transform="matrix(1.5439303,0,0,1.5288184,2042.0938,529.6138)" d="M0 0-7.8 7.8-15.6 0-7.8-7.8Z" fill="#5c7866"/>
<path transform="matrix(1.5439303,0,0,1.5288184,2082.591,492.7998)" d="M0 0-7.8 7.8-15.6 0-7.8-7.8Z" fill="#5c7866"/>
<path transform="matrix(1.5439303,0,0,1.5288184,2123.073,480.08003)" d="M0 0-7.8 7.8-15.6 0-7.8-7.8Z" fill="#5c7866"/>
<path transform="matrix(1.5439303,0,0,1.5288184,2163.5704,431.8916)" d="M0 0-7.8 7.8-15.6 0-7.8-7.8Z" fill="#5c7866"/>
<path transform="matrix(1.5439303,0,0,1.5288184,2204.052,336.8603)" d="M0 0-7.8 7.8-15.6 0-7.8-7.8Z" fill="#5c7866"/>
<path transform="matrix(1.5439303,0,0,1.5288184,2244.5494,299.37367)" d="M0 0-7.8 7.8-15.6 0-7.8-7.8Z" fill="#5c7866"/>
<path transform="matrix(1.5439303,0,0,1.5288184,2285.0313,245.83448)" d="M0 0-7.8 7.8-15.6 0-7.8-7.8Z" fill="#5c7866"/>
<path transform="matrix(1.5439303,0,0,1.5288184,2325.5286,200.32154)" d="M0 0-7.8 7.8-15.6 0-7.8-7.8Z" fill="#5c7866"/>
<path transform="matrix(1.5439303,0,0,1.5288184,2366.0106,171.5492)" d="M0 0-7.8 7.8-15.6 0-7.8-7.8Z" fill="#5c7866"/>
<path transform="matrix(1.5439303,0,0,1.5288184,2406.5079,164.1803)" d="M0 0-7.8 7.8-15.6 0-7.8-7.8Z" fill="#5c7866"/>
<path transform="matrix(1.5439303,0,0,1.5288184,2447.0052,138.08338)" d="M0 0-7.8 7.8-15.6 0-7.8-7.8Z" fill="#5c7866"/>
<path transform="matrix(1.5439303,0,0,1.5288184,2487.4869,132.73242)" d="M0 0-7.8 7.8-15.6 0-7.8-7.8Z" fill="#5c7866"/>
<path transform="matrix(1.5439303,0,0,1.5288184,2527.9842,118.00989)" d="M0 0-7.8 7.8-15.6 0-7.8-7.8Z" fill="#5c7866"/>
<path transform="matrix(1.5439303,0,0,1.5288184,2568.466,130.057)" d="M0 0-7.8 7.8-15.6 0-7.8-7.8Z" fill="#5c7866"/>
<path transform="matrix(1.5439303,0,0,1.5288184,2608.9635,109.29578)" d="M0 0-7.8 7.8-15.6 0-7.8-7.8Z" fill="#5c7866"/>
<path transform="matrix(1.5439303,0,0,1.5288184,2649.445,106.62036)" d="M0 0-7.8 7.8-15.6 0-7.8-7.8Z" fill="#5c7866"/>
<path transform="matrix(1.5439303,0,0,1.5288184,2689.9425,87.892337)" d="M0 0-7.8 7.8-15.6 0-7.8-7.8Z" fill="#5c7866"/>
<path transform="matrix(1.5439303,0,0,1.5288184,2730.4244,93.243167)" d="M0 0-7.8 7.8-15.6 0-7.8-7.8Z" fill="#5c7866"/>
</g>
<path transform="matrix(1.5439303,0,0,1.5288184,1869.05,624.17117)" stroke-width="2" stroke-linecap="butt" stroke-miterlimit="4" stroke-linejoin="miter" fill="none" stroke="#3c3c3c" d="M0 0H578.34M0-396H578.34"/>
<path transform="matrix(1.5439303,0,0,1.5288184,1870.594,20.287842)" stroke-width="2" stroke-linecap="butt" stroke-miterlimit="4" stroke-linejoin="miter" fill="none" stroke="#3c3c3c" d="M0 0V394M576.34 0V394"/>
<g clip-path="url(#clip_26)">
<text fill="#2a3f5f" xml:space="preserve" transform="matrix(1.0049296 0 -0 .9950946 -31.57964 1323.1514)" font-size="30.727129" font-family="OpenSans"><tspan y="-664.01718" x="1909.2045">0</tspan></text>
</g>
<g clip-path="url(#clip_27)">
<text fill="#2a3f5f" xml:space="preserve" transform="matrix(1.0049296 0 -0 .9950946 -31.57964 1323.1514)" font-size="30.727129" font-family="OpenSans"><tspan y="-664.01718" x="1926.7737">%</tspan></text>
</g>
<g clip-path="url(#clip_28)">
<text fill="#2a3f5f" xml:space="preserve" transform="matrix(1.0049296 0 -0 .9950946 -31.57964 1323.1514)" font-size="30.727129" font-family="OpenSans"><tspan y="-664.01718" x="2061.599 2078.499">20</tspan></text>
</g>
<g clip-path="url(#clip_29)">
<text fill="#2a3f5f" xml:space="preserve" transform="matrix(1.0049296 0 -0 .9950946 -31.57964 1323.1514)" font-size="30.727129" font-family="OpenSans"><tspan y="-664.01718" x="2096.7376">%</tspan></text>
</g>
<g clip-path="url(#clip_30)">
<text fill="#2a3f5f" xml:space="preserve" transform="matrix(1.0049296 0 -0 .9950946 -31.57964 1323.1514)" font-size="30.727129" font-family="OpenSans"><tspan y="-664.01718" x="2222.7628 2239.6627">40</tspan></text>
</g>
<g clip-path="url(#clip_31)">
<text fill="#2a3f5f" xml:space="preserve" transform="matrix(1.0049296 0 -0 .9950946 -31.57964 1323.1514)" font-size="30.727129" font-family="OpenSans"><tspan y="-664.01718" x="2257.9012">%</tspan></text>
</g>
<g clip-path="url(#clip_32)">
<text fill="#2a3f5f" xml:space="preserve" transform="matrix(1.0049296 0 -0 .9950946 -31.57964 1323.1514)" font-size="30.727129" font-family="OpenSans"><tspan y="-664.01718" x="2383.9268 2400.8267">60</tspan></text>
</g>
<g clip-path="url(#clip_33)">
<text fill="#2a3f5f" xml:space="preserve" transform="matrix(1.0049296 0 -0 .9950946 -31.57964 1323.1514)" font-size="30.727129" font-family="OpenSans"><tspan y="-664.01718" x="2419.065">%</tspan></text>
</g>
<g clip-path="url(#clip_34)">
<text fill="#2a3f5f" xml:space="preserve" transform="matrix(1.0049296 0 -0 .9950946 -31.57964 1323.1514)" font-size="30.727129" font-family="OpenSans"><tspan y="-664.01718" x="2545.0909 2561.9908">80</tspan></text>
</g>
<g clip-path="url(#clip_35)">
<text fill="#2a3f5f" xml:space="preserve" transform="matrix(1.0049296 0 -0 .9950946 -31.57964 1323.1514)" font-size="30.727129" font-family="OpenSans"><tspan y="-664.01718" x="2580.2286">%</tspan></text>
</g>
<g clip-path="url(#clip_36)">
<text fill="#2a3f5f" xml:space="preserve" transform="matrix(1.0049296 0 -0 .9950946 -31.57964 1323.1514)" font-size="30.727129" font-family="OpenSans"><tspan y="-664.01718" x="2697.47 2714.3699 2732.8062">100</tspan></text>
</g>
<g clip-path="url(#clip_37)">
<text fill="#2a3f5f" xml:space="preserve" transform="matrix(1.0049296 0 -0 .9950946 -31.57964 1323.1514)" font-size="30.727129" font-family="OpenSans"><tspan y="-664.01718" x="2750.177">%</tspan></text>
</g>
<g clip-path="url(#clip_38)">
<text fill="#2a3f5f" xml:space="preserve" transform="matrix(1.0049296 0 -0 .9950946 -31.57964 1323.1514)" font-size="30.727129" font-family="OpenSans"><tspan y="-693.2078" x="1850.0227 1866.9227">48</tspan></text>
</g>
<g clip-path="url(#clip_39)">
<text fill="#2a3f5f" xml:space="preserve" transform="matrix(1.0049296 0 -0 .9950946 -31.57964 1323.1514)" font-size="30.727129" font-family="OpenSans"><tspan y="-894.9773" x="1850.0227 1866.9227">51</tspan></text>
</g>
<g clip-path="url(#clip_40)">
<text fill="#2a3f5f" xml:space="preserve" transform="matrix(1.0049296 0 -0 .9950946 -31.57964 1323.1514)" font-size="30.727129" font-family="OpenSans"><tspan y="-1096.762" x="1850.0228 1866.9229">54</tspan></text>
</g>
<g clip-path="url(#clip_41)">
<text fill="#2a3f5f" xml:space="preserve" transform="matrix(1.0049296 0 -0 .9950946 -31.57964 1323.1514)" font-size="30.727129" font-family="OpenSans"><tspan y="-1298.5315" x="1850.0228 1866.9229">57</tspan></text>
</g>
<text xml:space="preserve" transform="matrix(0 -1 1 0 -31.57964 1323.1514)" font-size="41.4" font-family="TimesNewRomanPSMT"><tspan y="68.76" x="871.5204 901.4112 912.9204 924.4296 942.7864 963.54849 975.0577 986.5669 1007.329 1028.0869 1038.3955 1066.0093 1084.3661 1095.8753 1107.3844">Attention Ratio</tspan></text>
<text xml:space="preserve" transform="matrix(1 0 -0 1 -31.57964 1323.1514)" font-size="50.04" font-family="TimesNewRomanPSMT"><tspan y="-594.2229" x="477.5037 494.16703 530.2959 546.9592 558.47848 591.6 605.5111 624.95169 650.03176 672.2495 686.16067 695.75839 731.88729 745.7984 759.70956 781.9273 807.0074 820.9185 834.82968 859.9097 884.9898 897.24966 930.62637 952.8441 966.75527 980.6664 1005.74649 1018.1064 1043.1864 1062.627 1075.1069 1087.5869 1123.7158 1145.9336 1171.0137 1193.2315 1209.8948 1232.1126 1246.0237 1259.9348 1285.0149 1310.095 1322.3547 1350.177 1364.0881 1386.3059 1411.386">(A) Visual Attention Ratio vs. Generation Steps</tspan></text>
<g clip-path="url(#clip_42)">
<path transform="matrix(1,0,0,-1,139.93187,515.51187)" d="M0 0C0 2.408 1.952 4.36 4.36 4.36H353.139C355.547 4.36 357.499 2.408 357.499 0V-94.412C357.499-96.82 355.547-98.773 353.139-98.773H4.36C1.952-98.773 0-96.82 0-94.412Z" fill="#ffffff" fill-rule="evenodd"/>
<path transform="matrix(1,0,0,-1,139.93187,515.51187)" stroke-width="2.59" stroke-linecap="butt" stroke-miterlimit="8" stroke-linejoin="miter" fill="none" stroke="#cfcfcf" d="M0 0C0 2.408 1.952 4.36 4.36 4.36H353.139C355.547 4.36 357.499 2.408 357.499 0V-94.412C357.499-96.82 355.547-98.773 353.139-98.773H4.36C1.952-98.773 0-96.82 0-94.412Z"/>
</g>
<text xml:space="preserve" transform="matrix(1 0 -0 1 -31.57964 1323.1514)" font-size="34.56" font-family="TimesNewRomanPSMT"><tspan y="-772.3245" x="253.9566 276.8768 286.4845 299.92835 309.536 326.816 344.096 355.6045 378.656 395.936 407.4445 424.7245">Vision-R1-7B</tspan></text>
<text xml:space="preserve" transform="matrix(1 0 -0 1 -31.57964 1323.1514)" font-size="34.56" font-family="TimesNewRomanPSMT"><tspan y="-725.21926" x="253.9566 274.48527 299.44453 318.6426 343.60527 355.11375 376.2299 393.5099 403.11756 420.39756 437.67756 453.0222 463.8395 475.348 492.52433">VAPO-Thinker-7B</tspan></text>
<path transform="matrix(1,0,0,-1,155.24027,539.3168)" stroke-width="6" stroke-linecap="butt" stroke-miterlimit="8" stroke-linejoin="miter" fill="none" stroke="#4c6cb3" stroke-opacity=".901962" d="M0 0H57.94"/>
<path transform="matrix(1,0,0,-1,154.58417,586.98507)" stroke-width="6" stroke-linecap="butt" stroke-miterlimit="8" stroke-linejoin="miter" fill="none" stroke="#5c7866" stroke-opacity=".901962" d="M0 0H57.94"/>
<text xml:space="preserve" transform="matrix(0 -1 1 0 -31.57964 1323.1514)" font-size="41.4" font-family="TimesNewRomanPSMT"><tspan y="1834.7339" x="871.5205 901.4113 919.7722 938.1331 958.8911 972.6773 991.0382 1009.39498 1030.1571 1040.4657 1054.252 1088.6926">Accuracy (%)</tspan></text>
<text xml:space="preserve" transform="matrix(1 0 -0 1 -31.57964 1323.1514)" font-size="50.04" font-family="TimesNewRomanPSMT"><tspan y="-594.2229" x="1972.3971 1989.0604 2022.4371 2039.1005 2048.708 2084.837 2107.0548 2129.2725 2154.3526 2171.0159 2193.2337 2215.4515 2240.5316 2253.0115 2278.0916 2297.5323 2310.0123 2322.6124 2355.989 2378.2069 2400.4246 2419.86 2444.945 2470.02 2483.9312 2509.0113 2534.0914 2546.331 2574.1534 2590.8167 2615.8968 2640.9769 2657.6402 2679.858 2699.2987">(B) Accuracy vs. Reasoning Progress</tspan></text>
<g clip-path="url(#clip_43)">
<path transform="matrix(1,0,0,-1,2375.7537,515.727)" d="M0 0C0 2.408 1.952 4.36 4.36 4.36H370.088C372.496 4.36 374.448 2.408 374.448 0V-94.412C374.448-96.82 372.496-98.773 370.088-98.773H4.36C1.952-98.773 0-96.82 0-94.412Z" fill="#ffffff" fill-rule="evenodd"/>
<path transform="matrix(1,0,0,-1,2375.7537,515.727)" stroke-width="2.59" stroke-linecap="butt" stroke-miterlimit="8" stroke-linejoin="miter" fill="none" stroke="#cfcfcf" d="M0 0C0 2.408 1.952 4.36 4.36 4.36H370.088C372.496 4.36 374.448 2.408 374.448 0V-94.412C374.448-96.82 372.496-98.773 370.088-98.773H4.36C1.952-98.773 0-96.82 0-94.412Z"/>
</g>
<text xml:space="preserve" transform="matrix(1 0 -0 1 -31.57964 1323.1514)" font-size="34.56" font-family="TimesNewRomanPSMT"><tspan y="-773.04" x="2503.6588 2526.5789 2536.1866 2549.6304 2559.238 2576.518 2593.798 2605.3067 2628.3582 2645.6383 2657.1468 2674.4268">Vision-R1-7B</tspan></text>
<path transform="matrix(1,0,0,-1,2395.3065,539.5154)" stroke-width="6" stroke-linecap="butt" stroke-miterlimit="8" stroke-linejoin="miter" fill="none" stroke="#4c6cb3" stroke-opacity=".901962" d="M0 0H66.217"/>
<g clip-path="url(#clip_44)">
<path transform="matrix(1,0,0,-1,2420.103,539.22787)" d="M0 0C0 5.257 4.262 9.519 9.519 9.519 14.776 9.519 19.038 5.257 19.038 0 19.038-5.257 14.776-9.519 9.519-9.519 4.262-9.519 0-5.257 0 0" fill="#4c6cb3" fill-rule="evenodd"/>
</g>
<text xml:space="preserve" transform="matrix(1 0 -0 1 -31.57964 1323.1514)" font-size="34.56" font-family="TimesNewRomanPSMT"><tspan y="-722.673" x="2504.2044 2524.733 2549.6922 2568.8905 2593.853 2605.3616 2626.4779 2643.7579 2653.3656 2670.6456 2687.9256 2703.2703 2714.0872 2725.5958 2742.772">VAPO-Thinker-7B</tspan></text>
<path transform="matrix(1,0,0,-1,2395.3065,589.59579)" stroke-width="6" stroke-linecap="butt" stroke-miterlimit="8" stroke-linejoin="miter" fill="none" stroke="#5c7866" stroke-opacity=".901962" d="M0 0H66.218"/>
<path transform="matrix(1,0,0,-1,2428.038,577.8893)" d="M0 0 11.706-11.706 0-23.411-11.706-11.706Z" fill="#5c7866" fill-rule="evenodd"/>
</g>
</g>
</svg>
